<?xml version="1.0" encoding="UTF-8" standalone="no"?>
<!DOCTYPE svg PUBLIC "-//W3C//DTD SVG 1.1//EN"
 "http://www.w3.org/Graphics/SVG/1.1/DTD/svg11.dtd">
<!-- Generated by graphviz version 2.30.1 (20130531.2229)
 -->
<!-- Title: models_diagram Pages: 1 -->
<svg width="1001pt" height="734pt"
 viewBox="0.00 0.00 1001.00 734.00" xmlns="http://www.w3.org/2000/svg" xmlns:xlink="http://www.w3.org/1999/xlink">
<g id="graph0" class="graph" transform="scale(1 1) rotate(0) translate(4 730)">
<title>models_diagram</title>
<polygon fill="white" stroke="white" points="-4,5 -4,-730 998,-730 998,5 -4,5"/>
<!-- _diagram_info -->
<g id="node1" class="node"><title>_diagram_info</title>
<text text-anchor="start" x="229" y="-711.6" font-family="Times,serif" font-size="13.00">Models diagram</text>
<text text-anchor="start" x="229" y="-697.6" font-family="Times,serif" font-size="13.00">Date: Aug 13 2013 &#45; 13:21</text>
<text text-anchor="start" x="229" y="-683.6" font-family="Times,serif" font-size="13.00">Migration version: 20130813092749</text>
<text text-anchor="start" x="229" y="-669.6" font-family="Times,serif" font-size="13.00">Generated by RailRoady 1.1.0</text>
<text text-anchor="start" x="229" y="-655.6" font-family="Times,serif" font-size="13.00">http://railroady.prestonlee.com</text>
</g>
<!-- Aacce -->
<g id="node2" class="node"><title>Aacce</title>
<ellipse fill="none" stroke="black" cx="480" cy="-687" rx="33.2209" ry="18"/>
<text text-anchor="middle" x="480" y="-683.3" font-family="Times,serif" font-size="14.00">Aacce</text>
</g>
<!-- Institute -->
<g id="node15" class="node"><title>Institute</title>
<ellipse fill="none" stroke="black" cx="389" cy="-594" rx="39.9464" ry="18"/>
<text text-anchor="middle" x="389" y="-590.3" font-family="Times,serif" font-size="14.00">Institute</text>
</g>
<!-- Aacce&#45;&gt;Institute -->
<g id="edge1" class="edge"><title>Aacce&#45;&gt;Institute</title>
<path fill="none" stroke="#80b4bd" d="M458.783,-664.783C444.734,-650.734 426.316,-632.316 411.93,-617.93"/>
<ellipse fill="none" stroke="#80b4bd" cx="461.735" cy="-667.735" rx="4.00002" ry="4.00002"/>
<polygon fill="#80b4bd" stroke="#80b4bd" points="411.89,-617.89 408,-607.637 408.354,-614.354 404.818,-610.818 404.818,-610.818 404.818,-610.818 408.354,-614.354 401.637,-614 411.89,-617.89 411.89,-617.89"/>
</g>
<!-- Department -->
<g id="node11" class="node"><title>Department</title>
<ellipse fill="none" stroke="black" cx="693" cy="-594" rx="54.3924" ry="18"/>
<text text-anchor="middle" x="693" y="-590.3" font-family="Times,serif" font-size="14.00">Department</text>
</g>
<!-- Aacce&#45;&gt;Department -->
<g id="edge2" class="edge"><title>Aacce&#45;&gt;Department</title>
<path fill="none" stroke="#227bcc" d="M512.713,-672.024C550.079,-656.06 611.276,-629.915 651.848,-612.581"/>
<ellipse fill="none" stroke="#227bcc" cx="508.949" cy="-673.632" rx="4.00002" ry="4.00002"/>
<polygon fill="#227bcc" stroke="#227bcc" points="651.99,-612.521 662.953,-612.73 656.588,-610.557 661.185,-608.592 661.185,-608.592 661.185,-608.592 656.588,-610.557 659.418,-604.454 651.99,-612.521 651.99,-612.521"/>
</g>
<!-- Ability -->
<g id="node3" class="node"><title>Ability</title>
<polygon fill="none" stroke="black" points="838.25,-705 781.75,-705 781.75,-669 838.25,-669 838.25,-705"/>
<text text-anchor="middle" x="810" y="-683.3" font-family="Times,serif" font-size="14.00">Ability</text>
</g>
<!-- Absence -->
<g id="node4" class="node"><title>Absence</title>
<ellipse fill="none" stroke="black" cx="274" cy="-18" rx="42.3701" ry="18"/>
<text text-anchor="middle" x="274" y="-14.3" font-family="Times,serif" font-size="14.00">Absence</text>
</g>
<!-- AverageScore -->
<g id="node5" class="node"><title>AverageScore</title>
<ellipse fill="none" stroke="black" cx="629" cy="-18" rx="63.5411" ry="18"/>
<text text-anchor="middle" x="629" y="-14.3" font-family="Times,serif" font-size="14.00">AverageScore</text>
</g>
<!-- Classroom -->
<g id="node6" class="node"><title>Classroom</title>
<ellipse fill="none" stroke="black" cx="497" cy="-450" rx="50.5427" ry="18"/>
<text text-anchor="middle" x="497" y="-446.3" font-family="Times,serif" font-size="14.00">Classroom</text>
</g>
<!-- Student -->
<g id="node28" class="node"><title>Student</title>
<ellipse fill="none" stroke="black" cx="375" cy="-90" rx="39.4691" ry="18"/>
<text text-anchor="middle" x="375" y="-86.3" font-family="Times,serif" font-size="14.00">Student</text>
</g>
<!-- Classroom&#45;&gt;Student -->
<g id="edge3" class="edge"><title>Classroom&#45;&gt;Student</title>
<path fill="none" stroke="#fcaceb" d="M492.27,-423.518C488.7,-405.587 483.341,-381.116 477,-360 449.641,-268.896 406.535,-164.463 386.256,-116.957"/>
<ellipse fill="none" stroke="#fcaceb" cx="493.11" cy="-427.826" rx="4.00001" ry="4.00001"/>
<polygon fill="#fcaceb" stroke="#fcaceb" points="386.231,-116.899 386.424,-105.935 384.26,-112.304 382.288,-107.709 382.288,-107.709 382.288,-107.709 384.26,-112.304 378.153,-109.483 386.231,-116.899 386.231,-116.899"/>
</g>
<!-- Profile -->
<g id="node21" class="node"><title>Profile</title>
<ellipse fill="none" stroke="black" cx="325" cy="-378" rx="36.096" ry="18"/>
<text text-anchor="middle" x="325" y="-374.3" font-family="Times,serif" font-size="14.00">Profile</text>
</g>
<!-- Classroom&#45;&gt;Profile -->
<g id="edge4" class="edge"><title>Classroom&#45;&gt;Profile</title>
<path fill="none" stroke="#8569bd" d="M457.556,-432.947C428.728,-421.215 389.909,-405.416 361.734,-393.95"/>
<ellipse fill="none" stroke="#8569bd" cx="461.346" cy="-434.49" rx="4.00001" ry="4.00001"/>
<polygon fill="#8569bd" stroke="#8569bd" points="361.509,-393.858 353.943,-385.921 356.878,-391.973 352.246,-390.089 352.246,-390.089 352.246,-390.089 356.878,-391.973 350.55,-394.257 361.509,-393.858 361.509,-393.858"/>
</g>
<!-- Schedule -->
<g id="node26" class="node"><title>Schedule</title>
<ellipse fill="none" stroke="black" cx="424" cy="-378" rx="44.271" ry="18"/>
<text text-anchor="middle" x="424" y="-374.3" font-family="Times,serif" font-size="14.00">Schedule</text>
</g>
<!-- Classroom&#45;&gt;Schedule -->
<g id="edge5" class="edge"><title>Classroom&#45;&gt;Schedule</title>
<path fill="none" stroke="#a26212" d="M474.244,-427.179C465.904,-419.182 456.442,-410.109 447.997,-402.011"/>
<ellipse fill="none" stroke="#a26212" cx="477.182" cy="-429.996" rx="4.00002" ry="4.00002"/>
<polygon fill="#a26212" stroke="#a26212" points="447.806,-401.827 443.702,-391.658 444.197,-398.367 440.588,-394.906 440.588,-394.906 440.588,-394.906 444.197,-398.367 437.473,-398.154 447.806,-401.827 447.806,-401.827"/>
</g>
<!-- Qualifyingentity -->
<g id="node22" class="node"><title>Qualifyingentity</title>
<ellipse fill="none" stroke="black" cx="777" cy="-306" rx="72.2155" ry="18"/>
<text text-anchor="middle" x="777" y="-302.3" font-family="Times,serif" font-size="14.00">Qualifyingentity</text>
</g>
<!-- Classroom&#45;&gt;Qualifyingentity -->
<g id="edge6" class="edge"><title>Classroom&#45;&gt;Qualifyingentity</title>
<path fill="none" stroke="#4db781" d="M506.384,-424.712C515.504,-404.353 531.312,-376.103 554,-360 595.558,-330.504 651.343,-317.255 696.721,-311.38"/>
<ellipse fill="none" stroke="#4db781" cx="504.795" cy="-428.411" rx="4.00002" ry="4.00002"/>
<polygon fill="#4db781" stroke="#4db781" points="696.899,-311.359 707.363,-314.638 701.863,-310.764 706.828,-310.17 706.828,-310.17 706.828,-310.17 701.863,-310.764 706.293,-305.702 696.899,-311.359 696.899,-311.359"/>
</g>
<!-- ObjetiveAverage -->
<g id="node18" class="node"><title>ObjetiveAverage</title>
<ellipse fill="none" stroke="black" cx="636" cy="-378" rx="73.1654" ry="18"/>
<text text-anchor="middle" x="636" y="-374.3" font-family="Times,serif" font-size="14.00">ObjetiveAverage</text>
</g>
<!-- Classroom&#45;&gt;ObjetiveAverage -->
<g id="edge7" class="edge"><title>Classroom&#45;&gt;ObjetiveAverage</title>
<path fill="none" stroke="#ddde0d" d="M532.465,-431.14C551.802,-421.402 575.806,-409.314 595.831,-399.229"/>
<ellipse fill="none" stroke="#ddde0d" cx="528.701" cy="-433.035" rx="4.00002" ry="4.00002"/>
<polygon fill="#ddde0d" stroke="#ddde0d" points="596.08,-399.104 607.035,-398.625 600.545,-396.855 605.011,-394.606 605.011,-394.606 605.011,-394.606 600.545,-396.855 602.987,-390.587 596.08,-399.104 596.08,-399.104"/>
</g>
<!-- ClassroomDiary -->
<g id="node7" class="node"><title>ClassroomDiary</title>
<ellipse fill="none" stroke="black" cx="131" cy="-306" rx="72.2155" ry="18"/>
<text text-anchor="middle" x="131" y="-302.3" font-family="Times,serif" font-size="14.00">ClassroomDiary</text>
</g>
<!-- Content -->
<g id="node8" class="node"><title>Content</title>
<ellipse fill="none" stroke="black" cx="907" cy="-306" rx="39.9464" ry="18"/>
<text text-anchor="middle" x="907" y="-302.3" font-family="Times,serif" font-size="14.00">Content</text>
</g>
<!-- Contentblock -->
<g id="node9" class="node"><title>Contentblock</title>
<ellipse fill="none" stroke="black" cx="866" cy="-378" rx="61.6163" ry="18"/>
<text text-anchor="middle" x="866" y="-374.3" font-family="Times,serif" font-size="14.00">Contentblock</text>
</g>
<!-- Contentblock&#45;&gt;Content -->
<g id="edge8" class="edge"><title>Contentblock&#45;&gt;Content</title>
<path fill="none" stroke="#00a840" d="M880.059,-352.998C883.93,-346.387 888.144,-339.194 892.063,-332.502"/>
<ellipse fill="none" stroke="#00a840" cx="877.947" cy="-356.603" rx="4.00002" ry="4.00002"/>
<polygon fill="#00a840" stroke="#00a840" points="892.112,-332.418 901.049,-326.063 894.639,-328.103 897.166,-323.789 897.166,-323.789 897.166,-323.789 894.639,-328.103 893.283,-321.515 892.112,-332.418 892.112,-332.418"/>
</g>
<!-- Contentblock&#45;&gt;Qualifyingentity -->
<g id="edge9" class="edge"><title>Contentblock&#45;&gt;Qualifyingentity</title>
<path fill="none" stroke="#dec860" d="M837.266,-354.4C827.238,-346.513 815.983,-337.66 805.938,-329.76"/>
<polygon fill="#dec860" stroke="#dec860" points="837.498,-354.582 842.576,-364.302 841.428,-357.674 845.358,-360.765 845.358,-360.765 845.358,-360.765 841.428,-357.674 848.14,-357.228 837.498,-354.582 837.498,-354.582"/>
<polygon fill="#dec860" stroke="#dec860" points="805.699,-329.572 800.62,-319.853 801.769,-326.481 797.838,-323.39 797.838,-323.39 797.838,-323.39 801.769,-326.481 795.056,-326.927 805.699,-329.572 805.699,-329.572"/>
</g>
<!-- Criterion -->
<g id="node10" class="node"><title>Criterion</title>
<ellipse fill="none" stroke="black" cx="752" cy="-162" rx="44.271" ry="18"/>
<text text-anchor="middle" x="752" y="-158.3" font-family="Times,serif" font-size="14.00">Criterion</text>
</g>
<!-- Matter -->
<g id="node16" class="node"><title>Matter</title>
<ellipse fill="none" stroke="black" cx="724" cy="-450" rx="35.1455" ry="18"/>
<text text-anchor="middle" x="724" y="-446.3" font-family="Times,serif" font-size="14.00">Matter</text>
</g>
<!-- Department&#45;&gt;Matter -->
<g id="edge10" class="edge"><title>Department&#45;&gt;Matter</title>
<path fill="none" stroke="#f235cf" d="M698.473,-567.929C703.976,-542.725 712.431,-503.994 718.085,-478.095"/>
<ellipse fill="none" stroke="#f235cf" cx="697.593" cy="-571.964" rx="4.00001" ry="4.00001"/>
<polygon fill="#f235cf" stroke="#f235cf" points="718.114,-477.959 724.644,-469.149 719.181,-473.074 720.247,-468.189 720.247,-468.189 720.247,-468.189 719.181,-473.074 715.851,-467.229 718.114,-477.959 718.114,-477.959"/>
</g>
<!-- Teacher -->
<g id="node29" class="node"><title>Teacher</title>
<ellipse fill="none" stroke="black" cx="417" cy="-522" rx="39.9464" ry="18"/>
<text text-anchor="middle" x="417" y="-518.3" font-family="Times,serif" font-size="14.00">Teacher</text>
</g>
<!-- Department&#45;&gt;Teacher -->
<g id="edge11" class="edge"><title>Department&#45;&gt;Teacher</title>
<path fill="none" stroke="#10cd68" d="M642.503,-579.374C637.944,-578.208 633.392,-577.068 629,-576 556.91,-558.473 537.389,-560.193 466,-540 463.02,-539.157 459.957,-538.234 456.886,-537.267"/>
<polygon fill="#10cd68" stroke="#10cd68" points="642.758,-579.44 651.309,-586.305 647.598,-580.695 652.438,-581.949 652.438,-581.949 652.438,-581.949 647.598,-580.695 653.567,-577.593 642.758,-579.44 642.758,-579.44"/>
<polygon fill="#10cd68" stroke="#10cd68" points="456.649,-537.19 448.547,-529.8 451.897,-535.633 447.146,-534.076 447.146,-534.076 447.146,-534.076 451.897,-535.633 445.745,-538.353 456.649,-537.19 456.649,-537.19"/>
</g>
<!-- Departmenttype -->
<g id="node12" class="node"><title>Departmenttype</title>
<ellipse fill="none" stroke="black" cx="693" cy="-687" rx="70.2668" ry="18"/>
<text text-anchor="middle" x="693" y="-683.3" font-family="Times,serif" font-size="14.00">Departmenttype</text>
</g>
<!-- Departmenttype&#45;&gt;Department -->
<g id="edge12" class="edge"><title>Departmenttype&#45;&gt;Department</title>
<path fill="none" stroke="#b6864e" d="M693,-660.729C693,-648.725 693,-634.362 693,-622.129"/>
<ellipse fill="none" stroke="#b6864e" cx="693" cy="-664.884" rx="4" ry="4"/>
<polygon fill="#b6864e" stroke="#b6864e" points="693,-622.04 697.5,-612.04 693,-617.04 693,-612.04 693,-612.04 693,-612.04 693,-617.04 688.5,-612.04 693,-622.04 693,-622.04"/>
</g>
<!-- Group -->
<g id="node13" class="node"><title>Group</title>
<ellipse fill="none" stroke="black" cx="511" cy="-522" rx="35.6194" ry="18"/>
<text text-anchor="middle" x="511" y="-518.3" font-family="Times,serif" font-size="14.00">Group</text>
</g>
<!-- Group&#45;&gt;Classroom -->
<g id="edge13" class="edge"><title>Group&#45;&gt;Classroom</title>
<path fill="none" stroke="#735051" d="M505.997,-495.987C504.85,-490.249 503.624,-484.121 502.459,-478.293"/>
<ellipse fill="none" stroke="#735051" cx="506.826" cy="-500.133" rx="4.00001" ry="4.00001"/>
<polygon fill="#735051" stroke="#735051" points="502.416,-478.081 504.868,-467.393 501.436,-473.178 500.455,-468.275 500.455,-468.275 500.455,-468.275 501.436,-473.178 496.042,-469.158 502.416,-478.081 502.416,-478.081"/>
</g>
<!-- Incident -->
<g id="node14" class="node"><title>Incident</title>
<ellipse fill="none" stroke="black" cx="375" cy="-18" rx="40.4202" ry="18"/>
<text text-anchor="middle" x="375" y="-14.3" font-family="Times,serif" font-size="14.00">Incident</text>
</g>
<!-- Institute&#45;&gt;Profile -->
<g id="edge14" class="edge"><title>Institute&#45;&gt;Profile</title>
<path fill="none" stroke="#64b195" d="M378.627,-568.558C375.031,-559.652 371.122,-549.449 368,-540 352.669,-493.601 338.85,-438.342 331.221,-406.113"/>
<ellipse fill="none" stroke="#64b195" cx="380.162" cy="-572.299" rx="4.00002" ry="4.00002"/>
<polygon fill="#64b195" stroke="#64b195" points="331.159,-405.849 333.259,-395.086 330.019,-400.981 328.878,-396.112 328.878,-396.112 328.878,-396.112 330.019,-400.981 324.497,-397.139 331.159,-405.849 331.159,-405.849"/>
</g>
<!-- Matter&#45;&gt;Profile -->
<g id="edge15" class="edge"><title>Matter&#45;&gt;Profile</title>
<path fill="none" stroke="#0cbd15" d="M690.073,-434.922C686.706,-433.818 683.309,-432.817 680,-432 545.343,-398.74 504.781,-428.756 370,-396 367.185,-395.316 364.307,-394.505 361.434,-393.614"/>
<ellipse fill="none" stroke="#0cbd15" cx="694.051" cy="-436.318" rx="4.00001" ry="4.00001"/>
<polygon fill="#0cbd15" stroke="#0cbd15" points="361.259,-393.555 353.232,-386.085 356.524,-391.951 351.788,-390.347 351.788,-390.347 351.788,-390.347 356.524,-391.951 350.344,-394.609 361.259,-393.555 361.259,-393.555"/>
</g>
<!-- Matter&#45;&gt;Contentblock -->
<g id="edge16" class="edge"><title>Matter&#45;&gt;Contentblock</title>
<path fill="none" stroke="#1f8f6f" d="M755.869,-433.29C776.849,-422.948 804.459,-409.337 826.785,-398.331"/>
<ellipse fill="none" stroke="#1f8f6f" cx="751.998" cy="-435.198" rx="4.00002" ry="4.00002"/>
<polygon fill="#1f8f6f" stroke="#1f8f6f" points="827.026,-398.213 837.985,-397.827 831.511,-396.002 835.995,-393.791 835.995,-393.791 835.995,-393.791 831.511,-396.002 834.006,-389.755 827.026,-398.213 827.026,-398.213"/>
</g>
<!-- Tlresult -->
<g id="node30" class="node"><title>Tlresult</title>
<ellipse fill="none" stroke="black" cx="679" cy="-234" rx="38.4949" ry="18"/>
<text text-anchor="middle" x="679" y="-230.3" font-family="Times,serif" font-size="14.00">Tlresult</text>
</g>
<!-- Matter&#45;&gt;Tlresult -->
<g id="edge17" class="edge"><title>Matter&#45;&gt;Tlresult</title>
<path fill="none" stroke="#7a26d1" d="M725.468,-423.496C725.751,-405.369 724.575,-380.673 718,-360 712.317,-342.131 702.757,-341.491 696,-324 688.312,-304.099 683.999,-280.306 681.642,-262.329"/>
<ellipse fill="none" stroke="#7a26d1" cx="725.344" cy="-427.823" rx="4" ry="4"/>
<polygon fill="#7a26d1" stroke="#7a26d1" points="681.622,-262.163 684.911,-251.702 681.032,-257.198 680.442,-252.233 680.442,-252.233 680.442,-252.233 681.032,-257.198 675.974,-252.764 681.622,-262.163 681.622,-262.163"/>
</g>
<!-- Objetive -->
<g id="node17" class="node"><title>Objetive</title>
<ellipse fill="none" stroke="black" cx="629" cy="-450" rx="42.3701" ry="18"/>
<text text-anchor="middle" x="629" y="-446.3" font-family="Times,serif" font-size="14.00">Objetive</text>
</g>
<!-- Objetive&#45;&gt;ObjetiveAverage -->
<g id="edge18" class="edge"><title>Objetive&#45;&gt;ObjetiveAverage</title>
<path fill="none" stroke="#872e99" d="M631.536,-423.64C632.094,-418.063 632.687,-412.132 633.252,-406.476"/>
<ellipse fill="none" stroke="#872e99" cx="631.128" cy="-427.716" rx="4" ry="4"/>
<polygon fill="#872e99" stroke="#872e99" points="633.294,-406.055 638.767,-396.552 633.792,-401.08 634.29,-396.104 634.29,-396.104 634.29,-396.104 633.792,-401.08 629.812,-395.657 633.294,-406.055 633.294,-406.055"/>
</g>
<!-- Observation -->
<g id="node19" class="node"><title>Observation</title>
<ellipse fill="none" stroke="black" cx="55" cy="-18" rx="55.3436" ry="18"/>
<text text-anchor="middle" x="55" y="-14.3" font-family="Times,serif" font-size="14.00">Observation</text>
</g>
<!-- Point -->
<g id="node20" class="node"><title>Point</title>
<ellipse fill="none" stroke="black" cx="183" cy="-18" rx="30.3206" ry="18"/>
<text text-anchor="middle" x="183" y="-14.3" font-family="Times,serif" font-size="14.00">Point</text>
</g>
<!-- Profile&#45;&gt;Qualifyingentity -->
<g id="edge19" class="edge"><title>Profile&#45;&gt;Qualifyingentity</title>
<path fill="none" stroke="#414c23" d="M359.437,-363.072C362.97,-361.92 366.534,-360.868 370,-360 481.808,-332.004 614.812,-318.227 697.59,-311.878"/>
<ellipse fill="none" stroke="#414c23" cx="355.583" cy="-364.407" rx="4.00001" ry="4.00001"/>
<polygon fill="#414c23" stroke="#414c23" points="697.708,-311.869 708.017,-315.609 702.694,-311.495 707.68,-311.121 707.68,-311.121 707.68,-311.121 702.694,-311.495 707.344,-306.634 697.708,-311.869 697.708,-311.869"/>
</g>
<!-- QualifyingentityTlresult -->
<g id="node24" class="node"><title>QualifyingentityTlresult</title>
<ellipse fill="none" stroke="black" cx="550" cy="-162" rx="100.611" ry="18"/>
<text text-anchor="middle" x="550" y="-158.3" font-family="Times,serif" font-size="14.00">QualifyingentityTlresult</text>
</g>
<!-- Profile&#45;&gt;QualifyingentityTlresult -->
<g id="edge20" class="edge"><title>Profile&#45;&gt;QualifyingentityTlresult</title>
<path fill="none" stroke="#1918f4" d="M354.337,-357.182C367.767,-347.668 383.631,-335.79 397,-324 447.656,-279.328 500.618,-220.416 529.018,-187.662"/>
<polygon fill="#1918f4" stroke="#1918f4" points="354.11,-357.341 343.336,-359.38 350.012,-360.205 345.913,-363.069 345.913,-363.069 345.913,-363.069 350.012,-360.205 348.491,-366.757 354.11,-357.341 354.11,-357.341"/>
<polygon fill="#1918f4" stroke="#1918f4" points="529.161,-187.496 539.1,-182.862 532.426,-183.71 535.692,-179.923 535.692,-179.923 535.692,-179.923 532.426,-183.71 532.284,-176.984 529.161,-187.496 529.161,-187.496"/>
</g>
<!-- Profile&#45;&gt;Tlresult -->
<g id="edge21" class="edge"><title>Profile&#45;&gt;Tlresult</title>
<path fill="none" stroke="#01ba14" d="M361.618,-362.311C429.179,-335.211 572.77,-277.612 641.204,-250.161"/>
<polygon fill="#01ba14" stroke="#01ba14" points="361.471,-362.37 350.515,-361.917 356.831,-364.232 352.19,-366.093 352.19,-366.093 352.19,-366.093 356.831,-364.232 353.865,-370.27 361.471,-362.37 361.471,-362.37"/>
<polygon fill="#01ba14" stroke="#01ba14" points="641.456,-250.06 652.413,-250.514 646.097,-248.199 650.737,-246.337 650.737,-246.337 650.737,-246.337 646.097,-248.199 649.062,-242.161 641.456,-250.06 641.456,-250.06"/>
</g>
<!-- Score -->
<g id="node27" class="node"><title>Score</title>
<ellipse fill="none" stroke="black" cx="466" cy="-18" rx="32.2457" ry="18"/>
<text text-anchor="middle" x="466" y="-14.3" font-family="Times,serif" font-size="14.00">Score</text>
</g>
<!-- Profile&#45;&gt;Score -->
<g id="edge22" class="edge"><title>Profile&#45;&gt;Score</title>
<path fill="none" stroke="#da3264" d="M338.208,-351.326C342.469,-342.722 347.097,-333.021 351,-324 394.817,-222.721 438.606,-98.7685 456.987,-45.4478"/>
<polygon fill="#da3264" stroke="#da3264" points="338.098,-351.545 329.589,-358.461 335.854,-356.013 333.61,-360.481 333.61,-360.481 333.61,-360.481 335.854,-356.013 337.631,-362.501 338.098,-351.545 338.098,-351.545"/>
<polygon fill="#da3264" stroke="#da3264" points="457.068,-45.2108 464.573,-37.2149 458.692,-40.4819 460.317,-35.7531 460.317,-35.7531 460.317,-35.7531 458.692,-40.4819 456.061,-34.2913 457.068,-45.2108 457.068,-45.2108"/>
</g>
<!-- Profile&#45;&gt;Point -->
<g id="edge23" class="edge"><title>Profile&#45;&gt;Point</title>
<path fill="none" stroke="#890533" d="M300.368,-356.767C272.517,-331.46 231,-285.3 231,-235 231,-235 231,-235 231,-161 231,-118.4 211.373,-72.2181 197.22,-44.4539"/>
<ellipse fill="none" stroke="#890533" cx="303.436" cy="-359.489" rx="4.00002" ry="4.00002"/>
<polygon fill="#890533" stroke="#890533" points="197.134,-44.2903 196.467,-33.3447 194.809,-39.8639 192.483,-35.4375 192.483,-35.4375 192.483,-35.4375 194.809,-39.8639 188.5,-37.5304 197.134,-44.2903 197.134,-44.2903"/>
</g>
<!-- Profile&#45;&gt;Absence -->
<g id="edge24" class="edge"><title>Profile&#45;&gt;Absence</title>
<path fill="none" stroke="#04866f" d="M309.694,-353.975C293.114,-326.756 269,-279.518 269,-235 269,-235 269,-235 269,-161 269,-120.971 271.009,-74.6347 272.48,-46.0698"/>
<ellipse fill="none" stroke="#04866f" cx="311.819" cy="-357.382" rx="4.00002" ry="4.00002"/>
<polygon fill="#04866f" stroke="#04866f" points="272.482,-46.0284 277.506,-36.281 272.747,-41.0354 273.012,-36.0425 273.012,-36.0425 273.012,-36.0425 272.747,-41.0354 268.518,-35.8039 272.482,-46.0284 272.482,-46.0284"/>
</g>
<!-- Profile&#45;&gt;Incident -->
<g id="edge25" class="edge"><title>Profile&#45;&gt;Incident</title>
<path fill="none" stroke="#fa7d63" d="M319.875,-351.904C314.554,-323.622 307,-276.212 307,-235 307,-235 307,-235 307,-161 307,-120.553 307.385,-107.909 326,-72 331.799,-60.8139 340.601,-50.2389 349.154,-41.5205"/>
<ellipse fill="none" stroke="#fa7d63" cx="320.686" cy="-356.111" rx="4.00001" ry="4.00001"/>
<polygon fill="#fa7d63" stroke="#fa7d63" points="349.347,-41.3328 359.657,-37.5974 352.935,-37.8505 356.523,-34.3682 356.523,-34.3682 356.523,-34.3682 352.935,-37.8505 353.389,-31.139 349.347,-41.3328 349.347,-41.3328"/>
</g>
<!-- Profile&#45;&gt;Observation -->
<g id="edge26" class="edge"><title>Profile&#45;&gt;Observation</title>
<path fill="none" stroke="#019a7d" d="M281.203,-374.335C212.074,-369.21 82.1975,-355.562 50,-324 21.1161,-295.686 31,-275.447 31,-235 31,-235 31,-235 31,-161 31,-120.65 40.5377,-74.742 47.588,-46.3186"/>
<ellipse fill="none" stroke="#019a7d" cx="285.331" cy="-374.631" rx="4" ry="4"/>
<polygon fill="#019a7d" stroke="#019a7d" points="47.665,-46.0172 54.5029,-37.4444 48.9041,-41.1732 50.1432,-36.3292 50.1432,-36.3292 50.1432,-36.3292 48.9041,-41.1732 45.7836,-35.214 47.665,-46.0172 47.665,-46.0172"/>
</g>
<!-- Profile&#45;&gt;Student -->
<g id="edge27" class="edge"><title>Profile&#45;&gt;Student</title>
<path fill="none" stroke="#1094a3" d="M329.709,-350.065C339.225,-295.63 360.654,-173.058 370.225,-118.311"/>
<polygon fill="#1094a3" stroke="#1094a3" points="329.7,-350.115 323.545,-359.191 328.839,-355.041 327.978,-359.966 327.978,-359.966 327.978,-359.966 328.839,-355.041 332.411,-360.741 329.7,-350.115 329.7,-350.115"/>
<polygon fill="#1094a3" stroke="#1094a3" points="370.252,-118.157 376.407,-109.081 371.113,-113.232 371.974,-108.306 371.974,-108.306 371.974,-108.306 371.113,-113.232 367.542,-107.531 370.252,-118.157 370.252,-118.157"/>
</g>
<!-- Profile&#45;&gt;ClassroomDiary -->
<g id="edge28" class="edge"><title>Profile&#45;&gt;ClassroomDiary</title>
<path fill="none" stroke="#e11ee6" d="M288.588,-363.862C257.867,-352.777 213.623,-336.812 179.831,-324.62"/>
<ellipse fill="none" stroke="#e11ee6" cx="292.612" cy="-365.314" rx="4.00001" ry="4.00001"/>
<polygon fill="#e11ee6" stroke="#e11ee6" points="179.559,-324.521 171.68,-316.894 174.856,-322.824 170.153,-321.127 170.153,-321.127 170.153,-321.127 174.856,-322.824 168.626,-325.36 179.559,-324.521 179.559,-324.521"/>
</g>
<!-- Qualifyingentity&#45;&gt;QualifyingentityTlresult -->
<g id="edge29" class="edge"><title>Qualifyingentity&#45;&gt;QualifyingentityTlresult</title>
<path fill="none" stroke="#74429f" d="M718.446,-290.823C690.471,-282.337 657.415,-269.699 631,-252 605.448,-234.88 582.498,-208.018 567.607,-188.281"/>
<ellipse fill="none" stroke="#74429f" cx="722.355" cy="-291.975" rx="4.00001" ry="4.00001"/>
<polygon fill="#74429f" stroke="#74429f" points="567.47,-188.095 565.168,-177.374 564.507,-184.068 561.543,-180.041 561.543,-180.041 561.543,-180.041 564.507,-184.068 557.919,-182.708 567.47,-188.095 567.47,-188.095"/>
</g>
<!-- Qualifyingentity&#45;&gt;Tlresult -->
<g id="edge30" class="edge"><title>Qualifyingentity&#45;&gt;Tlresult</title>
<path fill="none" stroke="#7f3baa" d="M746.105,-282.932C733.803,-274.145 719.729,-264.092 707.658,-255.47"/>
<polygon fill="#7f3baa" stroke="#7f3baa" points="746.133,-282.952 751.655,-292.426 750.202,-285.858 754.271,-288.765 754.271,-288.765 754.271,-288.765 750.202,-285.858 756.886,-285.103 746.133,-282.952 746.133,-282.952"/>
<polygon fill="#7f3baa" stroke="#7f3baa" points="707.413,-255.295 701.892,-245.821 703.345,-252.389 699.276,-249.483 699.276,-249.483 699.276,-249.483 703.345,-252.389 696.66,-253.145 707.413,-255.295 707.413,-255.295"/>
</g>
<!-- QualifyingentityCriterion -->
<g id="node23" class="node"><title>QualifyingentityCriterion</title>
<ellipse fill="none" stroke="black" cx="887" cy="-234" rx="106.386" ry="18"/>
<text text-anchor="middle" x="887" y="-230.3" font-family="Times,serif" font-size="14.00">QualifyingentityCriterion</text>
</g>
<!-- Qualifyingentity&#45;&gt;QualifyingentityCriterion -->
<g id="edge31" class="edge"><title>Qualifyingentity&#45;&gt;QualifyingentityCriterion</title>
<path fill="none" stroke="#590ebd" d="M809.1,-284.573C822.675,-275.934 838.517,-265.853 852.356,-257.046"/>
<ellipse fill="none" stroke="#590ebd" cx="805.611" cy="-286.793" rx="4.00002" ry="4.00002"/>
<polygon fill="#590ebd" stroke="#590ebd" points="852.681,-256.839 863.534,-255.267 856.899,-254.155 861.118,-251.471 861.118,-251.471 861.118,-251.471 856.899,-254.155 858.702,-247.674 852.681,-256.839 852.681,-256.839"/>
</g>
<!-- Qualifyingentity&#45;&gt;Criterion -->
<g id="edge32" class="edge"><title>Qualifyingentity&#45;&gt;Criterion</title>
<path fill="none" stroke="#ad77d4" d="M772.19,-277.679C767.755,-252.487 761.207,-215.295 756.781,-190.156"/>
<polygon fill="#ad77d4" stroke="#ad77d4" points="772.25,-278.023 769.553,-288.652 773.117,-282.947 773.984,-287.871 773.984,-287.871 773.984,-287.871 773.117,-282.947 778.416,-287.091 772.25,-278.023 772.25,-278.023"/>
<polygon fill="#ad77d4" stroke="#ad77d4" points="756.76,-190.038 759.458,-179.409 755.893,-185.114 755.026,-180.189 755.026,-180.189 755.026,-180.189 755.893,-185.114 750.594,-180.97 756.76,-190.038 756.76,-190.038"/>
</g>
<!-- QualifyingentityTlresult&#45;&gt;Score -->
<g id="edge33" class="edge"><title>QualifyingentityTlresult&#45;&gt;Score</title>
<path fill="none" stroke="#21ddcf" d="M535.773,-136.949C520.533,-111.187 496.453,-70.48 480.943,-44.2614"/>
<ellipse fill="none" stroke="#21ddcf" cx="537.831" cy="-140.429" rx="4.00002" ry="4.00002"/>
<polygon fill="#21ddcf" stroke="#21ddcf" points="480.741,-43.9188 479.522,-33.0208 478.195,-39.6154 475.649,-35.3119 475.649,-35.3119 475.649,-35.3119 478.195,-39.6154 471.776,-37.6031 480.741,-43.9188 480.741,-43.9188"/>
</g>
<!-- QualifyingentityTlresult&#45;&gt;Student -->
<g id="edge34" class="edge"><title>QualifyingentityTlresult&#45;&gt;Student</title>
<path fill="none" stroke="#2f7680" d="M501.255,-141.502C473.354,-130.342 438.865,-116.546 412.988,-106.195"/>
<polygon fill="#2f7680" stroke="#2f7680" points="501.442,-141.577 509.055,-149.469 506.084,-143.434 510.727,-145.291 510.727,-145.291 510.727,-145.291 506.084,-143.434 512.398,-141.112 501.442,-141.577 501.442,-141.577"/>
<polygon fill="#2f7680" stroke="#2f7680" points="412.809,-106.123 405.195,-98.2314 408.166,-104.267 403.524,-102.41 403.524,-102.41 403.524,-102.41 408.166,-104.267 401.853,-106.588 412.809,-106.123 412.809,-106.123"/>
</g>
<!-- Quarter -->
<g id="node25" class="node"><title>Quarter</title>
<ellipse fill="none" stroke="black" cx="852" cy="-450" rx="39.4691" ry="18"/>
<text text-anchor="middle" x="852" y="-446.3" font-family="Times,serif" font-size="14.00">Quarter</text>
</g>
<!-- Quarter&#45;&gt;Contentblock -->
<g id="edge35" class="edge"><title>Quarter&#45;&gt;Contentblock</title>
<path fill="none" stroke="#ac331a" d="M857.003,-423.987C858.15,-418.249 859.376,-412.121 860.541,-406.293"/>
<ellipse fill="none" stroke="#ac331a" cx="856.174" cy="-428.133" rx="4.00001" ry="4.00001"/>
<polygon fill="#ac331a" stroke="#ac331a" points="860.584,-406.081 866.958,-397.158 861.564,-401.178 862.545,-396.275 862.545,-396.275 862.545,-396.275 861.564,-401.178 858.132,-395.393 860.584,-406.081 860.584,-406.081"/>
</g>
<!-- Quarter&#45;&gt;Qualifyingentity -->
<g id="edge36" class="edge"><title>Quarter&#45;&gt;Qualifyingentity</title>
<path fill="none" stroke="#54138c" d="M824.718,-429.685C813.882,-420.649 802.287,-409.008 795,-396 784.373,-377.03 779.972,-352.666 778.173,-334.227"/>
<ellipse fill="none" stroke="#54138c" cx="827.85" cy="-432.194" rx="4.00002" ry="4.00002"/>
<polygon fill="#54138c" stroke="#54138c" points="778.164,-334.11 781.874,-323.791 777.776,-329.125 777.387,-324.14 777.387,-324.14 777.387,-324.14 777.776,-329.125 772.901,-324.49 778.164,-334.11 778.164,-334.11"/>
</g>
<!-- Student&#45;&gt;Score -->
<g id="edge37" class="edge"><title>Student&#45;&gt;Score</title>
<path fill="none" stroke="#77f478" d="M400.883,-69.0903C413.013,-59.7593 427.444,-48.6585 439.634,-39.2813"/>
<ellipse fill="none" stroke="#77f478" cx="397.469" cy="-71.7159" rx="4.00002" ry="4.00002"/>
<polygon fill="#77f478" stroke="#77f478" points="439.734,-39.2048 450.404,-36.6745 443.697,-36.1562 447.66,-33.1076 447.66,-33.1076 447.66,-33.1076 443.697,-36.1562 444.916,-29.5408 439.734,-39.2048 439.734,-39.2048"/>
</g>
<!-- Student&#45;&gt;AverageScore -->
<g id="edge38" class="edge"><title>Student&#45;&gt;AverageScore</title>
<path fill="none" stroke="#ad58cd" d="M415.41,-77.8634C458.599,-65.9609 527.293,-47.0294 575.073,-33.8618"/>
<ellipse fill="none" stroke="#ad58cd" cx="411.542" cy="-78.9292" rx="4.00001" ry="4.00001"/>
<polygon fill="#ad58cd" stroke="#ad58cd" points="575.294,-33.801 586.13,-35.4823 580.114,-32.4725 584.934,-31.144 584.934,-31.144 584.934,-31.144 580.114,-32.4725 583.739,-26.8058 575.294,-33.801 575.294,-33.801"/>
</g>
<!-- Student&#45;&gt;Point -->
<g id="edge39" class="edge"><title>Student&#45;&gt;Point</title>
<path fill="none" stroke="#4a9888" d="M335.98,-76.1888C305.122,-65.8667 261.05,-50.7006 223,-36 220.66,-35.0958 218.253,-34.1397 215.835,-33.1605"/>
<ellipse fill="none" stroke="#4a9888" cx="340.128" cy="-77.5713" rx="4.00001" ry="4.00001"/>
<polygon fill="#4a9888" stroke="#4a9888" points="215.822,-33.1552 208.305,-25.1718 211.203,-31.2423 206.583,-29.3295 206.583,-29.3295 206.583,-29.3295 211.203,-31.2423 204.862,-33.4872 215.822,-33.1552 215.822,-33.1552"/>
</g>
<!-- Student&#45;&gt;Absence -->
<g id="edge40" class="edge"><title>Student&#45;&gt;Absence</title>
<path fill="none" stroke="#98f4ed" d="M347.311,-69.8098C333.711,-60.3839 317.316,-49.0211 303.483,-39.4334"/>
<ellipse fill="none" stroke="#98f4ed" cx="350.785" cy="-72.2174" rx="4.00002" ry="4.00002"/>
<polygon fill="#98f4ed" stroke="#98f4ed" points="303.467,-39.4227 297.811,-30.0277 299.357,-36.5745 295.248,-33.7263 295.248,-33.7263 295.248,-33.7263 299.357,-36.5745 292.685,-37.4249 303.467,-39.4227 303.467,-39.4227"/>
</g>
<!-- Student&#45;&gt;Incident -->
<g id="edge41" class="edge"><title>Student&#45;&gt;Incident</title>
<path fill="none" stroke="#0ad6b8" d="M375,-63.6398C375,-58.0629 375,-52.1319 375,-46.4761"/>
<ellipse fill="none" stroke="#0ad6b8" cx="375" cy="-67.6966" rx="4" ry="4"/>
<polygon fill="#0ad6b8" stroke="#0ad6b8" points="375,-46.1043 379.5,-36.1043 375,-41.1043 375,-36.1043 375,-36.1043 375,-36.1043 375,-41.1043 370.5,-36.1044 375,-46.1043 375,-46.1043"/>
</g>
<!-- Student&#45;&gt;Observation -->
<g id="edge42" class="edge"><title>Student&#45;&gt;Observation</title>
<path fill="none" stroke="#814df6" d="M332.288,-79.6567C274.844,-67.0908 172.648,-44.7355 109.658,-30.9564"/>
<ellipse fill="none" stroke="#814df6" cx="336.238" cy="-80.5207" rx="4.00001" ry="4.00001"/>
<polygon fill="#814df6" stroke="#814df6" points="109.286,-30.8751 100.479,-24.342 104.401,-29.8066 99.517,-28.7381 99.517,-28.7381 99.517,-28.7381 104.401,-29.8066 98.5553,-33.1341 109.286,-30.8751 109.286,-30.8751"/>
</g>
<!-- Teacher&#45;&gt;Classroom -->
<g id="edge43" class="edge"><title>Teacher&#45;&gt;Classroom</title>
<path fill="none" stroke="#f15ec0" d="M442.538,-498.654C451.646,-490.685 461.91,-481.704 471.052,-473.704"/>
<polygon fill="#f15ec0" stroke="#f15ec0" points="442.28,-498.88 431.791,-502.078 438.517,-502.172 434.755,-505.465 434.755,-505.465 434.755,-505.465 438.517,-502.172 437.718,-508.851 442.28,-498.88 442.28,-498.88"/>
<polygon fill="#f15ec0" stroke="#f15ec0" points="471.215,-473.562 481.704,-470.364 474.978,-470.27 478.74,-466.977 478.74,-466.977 478.74,-466.977 474.978,-470.27 475.777,-463.591 471.215,-473.562 471.215,-473.562"/>
</g>
<!-- Teacher&#45;&gt;Profile -->
<g id="edge44" class="edge"><title>Teacher&#45;&gt;Profile</title>
<path fill="none" stroke="#ba872c" d="M401.808,-497.552C385.115,-471.787 358.404,-430.559 341.287,-404.139"/>
<ellipse fill="none" stroke="#ba872c" cx="404.091" cy="-501.076" rx="4.00002" ry="4.00002"/>
<polygon fill="#ba872c" stroke="#ba872c" points="341.103,-403.854 339.442,-393.015 338.384,-399.658 335.665,-395.462 335.665,-395.462 335.665,-395.462 338.384,-399.658 331.889,-397.908 341.103,-403.854 341.103,-403.854"/>
</g>
<!-- Tlresult&#45;&gt;QualifyingentityTlresult -->
<g id="edge45" class="edge"><title>Tlresult&#45;&gt;QualifyingentityTlresult</title>
<path fill="none" stroke="#575dae" d="M647.469,-215.89C629.82,-206.313 607.666,-194.292 588.941,-184.131"/>
<ellipse fill="none" stroke="#575dae" cx="651.22" cy="-217.926" rx="4.00002" ry="4.00002"/>
<polygon fill="#575dae" stroke="#575dae" points="588.848,-184.081 582.205,-175.356 584.454,-181.696 580.059,-179.311 580.059,-179.311 580.059,-179.311 584.454,-181.696 577.913,-183.266 588.848,-184.081 588.848,-184.081"/>
</g>
<!-- Tlresult&#45;&gt;AverageScore -->
<g id="edge46" class="edge"><title>Tlresult&#45;&gt;AverageScore</title>
<path fill="none" stroke="#ed79ac" d="M673.426,-207.742C669.467,-189.915 663.99,-165.476 659,-144 651.133,-110.142 641.734,-71.2139 635.579,-45.9172"/>
<ellipse fill="none" stroke="#ed79ac" cx="674.374" cy="-212.016" rx="4.00001" ry="4.00001"/>
<polygon fill="#ed79ac" stroke="#ed79ac" points="635.522,-45.6806 637.526,-34.8995 634.338,-40.8228 633.154,-35.965 633.154,-35.965 633.154,-35.965 634.338,-40.8228 628.782,-37.0304 635.522,-45.6806 635.522,-45.6806"/>
</g>
<!-- Tlresult&#45;&gt;Criterion -->
<g id="edge47" class="edge"><title>Tlresult&#45;&gt;Criterion</title>
<path fill="none" stroke="#3d7932" d="M701.115,-211.794C709.695,-203.566 719.539,-194.127 728.268,-185.757"/>
<ellipse fill="none" stroke="#3d7932" cx="698.088" cy="-214.696" rx="4.00002" ry="4.00002"/>
<polygon fill="#3d7932" stroke="#3d7932" points="728.374,-185.655 738.706,-181.982 731.983,-182.195 735.592,-178.734 735.592,-178.734 735.592,-178.734 731.983,-182.195 732.477,-175.486 728.374,-185.655 728.374,-185.655"/>
</g>
<!-- Trainercycle -->
<g id="node31" class="node"><title>Trainercycle</title>
<ellipse fill="none" stroke="black" cx="629" cy="-522" rx="57.2927" ry="18"/>
<text text-anchor="middle" x="629" y="-518.3" font-family="Times,serif" font-size="14.00">Trainercycle</text>
</g>
<!-- Trainercycle&#45;&gt;Matter -->
<g id="edge48" class="edge"><title>Trainercycle&#45;&gt;Matter</title>
<path fill="none" stroke="#81c262" d="M657.34,-500.118C669.782,-490.95 684.333,-480.229 696.659,-471.146"/>
<ellipse fill="none" stroke="#81c262" cx="653.777" cy="-502.743" rx="4.00002" ry="4.00002"/>
<polygon fill="#81c262" stroke="#81c262" points="696.734,-471.091 707.454,-468.782 700.759,-468.125 704.784,-465.159 704.784,-465.159 704.784,-465.159 700.759,-468.125 702.115,-461.536 696.734,-471.091 696.734,-471.091"/>
</g>
<!-- Trainercycle&#45;&gt;Objetive -->
<g id="edge49" class="edge"><title>Trainercycle&#45;&gt;Objetive</title>
<path fill="none" stroke="#f02c34" d="M629,-495.64C629,-490.063 629,-484.132 629,-478.476"/>
<ellipse fill="none" stroke="#f02c34" cx="629" cy="-499.697" rx="4" ry="4"/>
<polygon fill="#f02c34" stroke="#f02c34" points="629,-478.104 633.5,-468.104 629,-473.104 629,-468.104 629,-468.104 629,-468.104 629,-473.104 624.5,-468.104 629,-478.104 629,-478.104"/>
</g>
<!-- Trainercycletype -->
<g id="node32" class="node"><title>Trainercycletype</title>
<ellipse fill="none" stroke="black" cx="547" cy="-594" rx="73.1654" ry="18"/>
<text text-anchor="middle" x="547" y="-590.3" font-family="Times,serif" font-size="14.00">Trainercycletype</text>
</g>
<!-- Trainercycletype&#45;&gt;Trainercycle -->
<g id="edge50" class="edge"><title>Trainercycletype&#45;&gt;Trainercycle</title>
<path fill="none" stroke="#4284c8" d="M572.543,-571.195C581.998,-563.123 592.739,-553.955 602.295,-545.797"/>
<ellipse fill="none" stroke="#4284c8" cx="569.475" cy="-573.814" rx="4.00002" ry="4.00002"/>
<polygon fill="#4284c8" stroke="#4284c8" points="602.384,-545.721 612.911,-542.651 606.187,-542.475 609.99,-539.228 609.99,-539.228 609.99,-539.228 606.187,-542.475 607.068,-535.806 602.384,-545.721 602.384,-545.721"/>
</g>
<!-- User -->
<g id="node33" class="node"><title>User</title>
<ellipse fill="none" stroke="black" cx="885" cy="-687" rx="28.3955" ry="18"/>
<text text-anchor="middle" x="885" y="-683.3" font-family="Times,serif" font-size="14.00">User</text>
</g>
</g>
</svg>
