<?xml version="1.0" encoding="UTF-8" standalone="no"?>
<!DOCTYPE svg PUBLIC "-//W3C//DTD SVG 1.1//EN"
 "http://www.w3.org/Graphics/SVG/1.1/DTD/svg11.dtd">
<!-- Generated by graphviz version 2.30.1 (20130531.2229)
 -->
<!-- Title: models_diagram Pages: 1 -->
<svg width="843pt" height="590pt"
 viewBox="0.00 0.00 843.00 590.00" xmlns="http://www.w3.org/2000/svg" xmlns:xlink="http://www.w3.org/1999/xlink">
<g id="graph0" class="graph" transform="scale(1 1) rotate(0) translate(4 586)">
<title>models_diagram</title>
<polygon fill="white" stroke="white" points="-4,5 -4,-586 840,-586 840,5 -4,5"/>
<!-- _diagram_info -->
<g id="node1" class="node"><title>_diagram_info</title>
<text text-anchor="start" x="8" y="-567.6" font-family="Times,serif" font-size="13.00">Models diagram</text>
<text text-anchor="start" x="8" y="-553.6" font-family="Times,serif" font-size="13.00">Date: Jun 23 2013 &#45; 11:36</text>
<text text-anchor="start" x="8" y="-539.6" font-family="Times,serif" font-size="13.00">Migration version: 20130618093720</text>
<text text-anchor="start" x="8" y="-525.6" font-family="Times,serif" font-size="13.00">Generated by RailRoady 1.1.0</text>
<text text-anchor="start" x="8" y="-511.6" font-family="Times,serif" font-size="13.00">http://railroady.prestonlee.com</text>
</g>
<!-- Aacce -->
<g id="node2" class="node"><title>Aacce</title>
<ellipse fill="none" stroke="black" cx="259" cy="-543" rx="33.2209" ry="18"/>
<text text-anchor="middle" x="259" y="-539.3" font-family="Times,serif" font-size="14.00">Aacce</text>
</g>
<!-- Institute -->
<g id="node11" class="node"><title>Institute</title>
<ellipse fill="none" stroke="black" cx="181" cy="-450" rx="39.9464" ry="18"/>
<text text-anchor="middle" x="181" y="-446.3" font-family="Times,serif" font-size="14.00">Institute</text>
</g>
<!-- Aacce&#45;&gt;Institute -->
<g id="edge1" class="edge"><title>Aacce&#45;&gt;Institute</title>
<path fill="none" stroke="#ec77b7" d="M240.107,-519.959C228.386,-506.283 213.328,-488.716 201.345,-474.735"/>
<ellipse fill="none" stroke="#ec77b7" cx="242.81" cy="-523.112" rx="4.00002" ry="4.00002"/>
<polygon fill="#ec77b7" stroke="#ec77b7" points="201.201,-474.567 198.109,-464.046 197.947,-470.771 194.693,-466.975 194.693,-466.975 194.693,-466.975 197.947,-470.771 191.276,-469.903 201.201,-474.567 201.201,-474.567"/>
</g>
<!-- Department -->
<g id="node8" class="node"><title>Department</title>
<ellipse fill="none" stroke="black" cx="459" cy="-450" rx="54.3924" ry="18"/>
<text text-anchor="middle" x="459" y="-446.3" font-family="Times,serif" font-size="14.00">Department</text>
</g>
<!-- Aacce&#45;&gt;Department -->
<g id="edge2" class="edge"><title>Aacce&#45;&gt;Department</title>
<path fill="none" stroke="#985862" d="M291.204,-527.347C326.061,-511.487 381.689,-486.177 419.244,-469.089"/>
<ellipse fill="none" stroke="#985862" cx="287.165" cy="-529.185" rx="4.00002" ry="4.00002"/>
<polygon fill="#985862" stroke="#985862" points="419.277,-469.074 430.243,-469.028 423.828,-467.003 428.379,-464.932 428.379,-464.932 428.379,-464.932 423.828,-467.003 426.516,-460.836 419.277,-469.074 419.277,-469.074"/>
</g>
<!-- Ability -->
<g id="node3" class="node"><title>Ability</title>
<polygon fill="none" stroke="black" points="604.25,-561 547.75,-561 547.75,-525 604.25,-525 604.25,-561"/>
<text text-anchor="middle" x="576" y="-539.3" font-family="Times,serif" font-size="14.00">Ability</text>
</g>
<!-- Classroom -->
<g id="node4" class="node"><title>Classroom</title>
<ellipse fill="none" stroke="black" cx="572" cy="-306" rx="50.5427" ry="18"/>
<text text-anchor="middle" x="572" y="-302.3" font-family="Times,serif" font-size="14.00">Classroom</text>
</g>
<!-- Student -->
<g id="node22" class="node"><title>Student</title>
<ellipse fill="none" stroke="black" cx="731" cy="-90" rx="39.4691" ry="18"/>
<text text-anchor="middle" x="731" y="-86.3" font-family="Times,serif" font-size="14.00">Student</text>
</g>
<!-- Classroom&#45;&gt;Student -->
<g id="edge3" class="edge"><title>Classroom&#45;&gt;Student</title>
<path fill="none" stroke="#1a50a9" d="M602.943,-285.345C615.729,-276.235 630.082,-264.631 641,-252 677.246,-210.065 705.623,-151.233 720.201,-117.526"/>
<ellipse fill="none" stroke="#1a50a9" cx="599.319" cy="-287.859" rx="4.00002" ry="4.00002"/>
<polygon fill="#1a50a9" stroke="#1a50a9" points="720.371,-117.124 728.418,-109.675 722.323,-112.521 724.275,-107.918 724.275,-107.918 724.275,-107.918 722.323,-112.521 720.133,-106.161 720.371,-117.124 720.371,-117.124"/>
</g>
<!-- Profile -->
<g id="node15" class="node"><title>Profile</title>
<ellipse fill="none" stroke="black" cx="309" cy="-234" rx="36.096" ry="18"/>
<text text-anchor="middle" x="309" y="-230.3" font-family="Times,serif" font-size="14.00">Profile</text>
</g>
<!-- Classroom&#45;&gt;Profile -->
<g id="edge4" class="edge"><title>Classroom&#45;&gt;Profile</title>
<path fill="none" stroke="#a2d9eb" d="M521.334,-294.531C476.842,-284.9 410.576,-269.492 354,-252 351.397,-251.195 348.726,-250.319 346.048,-249.404"/>
<ellipse fill="none" stroke="#a2d9eb" cx="525.471" cy="-295.42" rx="4.00001" ry="4.00001"/>
<polygon fill="#a2d9eb" stroke="#a2d9eb" points="345.839,-249.329 337.932,-241.731 341.13,-247.65 336.42,-245.97 336.42,-245.97 336.42,-245.97 341.13,-247.65 334.908,-250.208 345.839,-249.329 345.839,-249.329"/>
</g>
<!-- Schedule -->
<g id="node20" class="node"><title>Schedule</title>
<ellipse fill="none" stroke="black" cx="588" cy="-234" rx="44.271" ry="18"/>
<text text-anchor="middle" x="588" y="-230.3" font-family="Times,serif" font-size="14.00">Schedule</text>
</g>
<!-- Classroom&#45;&gt;Schedule -->
<g id="edge5" class="edge"><title>Classroom&#45;&gt;Schedule</title>
<path fill="none" stroke="#b297bf" d="M577.797,-279.64C579.104,-273.92 580.497,-267.828 581.819,-262.042"/>
<ellipse fill="none" stroke="#b297bf" cx="576.846" cy="-283.797" rx="4.00001" ry="4.00001"/>
<polygon fill="#b297bf" stroke="#b297bf" points="581.862,-261.853 588.477,-253.107 582.976,-256.979 584.09,-252.104 584.09,-252.104 584.09,-252.104 582.976,-256.979 579.704,-251.102 581.862,-261.853 581.862,-261.853"/>
</g>
<!-- Qualifyingentity -->
<g id="node16" class="node"><title>Qualifyingentity</title>
<ellipse fill="none" stroke="black" cx="515" cy="-162" rx="72.2155" ry="18"/>
<text text-anchor="middle" x="515" y="-158.3" font-family="Times,serif" font-size="14.00">Qualifyingentity</text>
</g>
<!-- Classroom&#45;&gt;Qualifyingentity -->
<g id="edge6" class="edge"><title>Classroom&#45;&gt;Qualifyingentity</title>
<path fill="none" stroke="#8d2f2f" d="M552.359,-282.004C545.65,-273.122 538.669,-262.563 534,-252 525.284,-232.281 520.462,-208.298 517.858,-190.198"/>
<ellipse fill="none" stroke="#8d2f2f" cx="554.93" cy="-285.291" rx="4.00002" ry="4.00002"/>
<polygon fill="#8d2f2f" stroke="#8d2f2f" points="517.827,-189.956 521.002,-179.46 517.183,-184.998 516.539,-180.039 516.539,-180.039 516.539,-180.039 517.183,-184.998 512.077,-180.619 517.827,-189.956 517.827,-189.956"/>
</g>
<!-- ObjetiveAverage -->
<g id="node14" class="node"><title>ObjetiveAverage</title>
<ellipse fill="none" stroke="black" cx="762" cy="-234" rx="73.1654" ry="18"/>
<text text-anchor="middle" x="762" y="-230.3" font-family="Times,serif" font-size="14.00">ObjetiveAverage</text>
</g>
<!-- Classroom&#45;&gt;ObjetiveAverage -->
<g id="edge7" class="edge"><title>Classroom&#45;&gt;ObjetiveAverage</title>
<path fill="none" stroke="#13157e" d="M613.554,-289.69C642.967,-278.854 682.51,-264.286 713.388,-252.91"/>
<ellipse fill="none" stroke="#13157e" cx="609.722" cy="-291.103" rx="4.00001" ry="4.00001"/>
<polygon fill="#13157e" stroke="#13157e" points="713.702,-252.794 724.641,-253.56 718.393,-251.066 723.085,-249.337 723.085,-249.337 723.085,-249.337 718.393,-251.066 721.529,-245.115 713.702,-252.794 713.702,-252.794"/>
</g>
<!-- Content -->
<g id="node5" class="node"><title>Content</title>
<ellipse fill="none" stroke="black" cx="385" cy="-162" rx="39.9464" ry="18"/>
<text text-anchor="middle" x="385" y="-158.3" font-family="Times,serif" font-size="14.00">Content</text>
</g>
<!-- Contentblock -->
<g id="node6" class="node"><title>Contentblock</title>
<ellipse fill="none" stroke="black" cx="425" cy="-234" rx="61.6163" ry="18"/>
<text text-anchor="middle" x="425" y="-230.3" font-family="Times,serif" font-size="14.00">Contentblock</text>
</g>
<!-- Contentblock&#45;&gt;Content -->
<g id="edge8" class="edge"><title>Contentblock&#45;&gt;Content</title>
<path fill="none" stroke="#73bdfd" d="M411.284,-208.998C407.507,-202.387 403.397,-195.194 399.573,-188.502"/>
<ellipse fill="none" stroke="#73bdfd" cx="413.333" cy="-212.582" rx="4.00002" ry="4.00002"/>
<polygon fill="#73bdfd" stroke="#73bdfd" points="399.555,-188.471 398.501,-177.556 397.074,-184.13 394.594,-179.789 394.594,-179.789 394.594,-179.789 397.074,-184.13 390.687,-182.022 399.555,-188.471 399.555,-188.471"/>
</g>
<!-- Contentblock&#45;&gt;Qualifyingentity -->
<g id="edge9" class="edge"><title>Contentblock&#45;&gt;Qualifyingentity</title>
<path fill="none" stroke="#66caba" d="M454.057,-210.4C464.198,-202.513 475.579,-193.66 485.737,-185.76"/>
<polygon fill="#66caba" stroke="#66caba" points="453.768,-210.625 443.111,-213.213 449.821,-213.695 445.874,-216.765 445.874,-216.765 445.874,-216.765 449.821,-213.695 448.637,-220.317 453.768,-210.625 453.768,-210.625"/>
<polygon fill="#66caba" stroke="#66caba" points="486.034,-185.529 496.69,-182.942 489.981,-182.46 493.927,-179.39 493.927,-179.39 493.927,-179.39 489.981,-182.46 491.165,-175.838 486.034,-185.529 486.034,-185.529"/>
</g>
<!-- Criterion -->
<g id="node7" class="node"><title>Criterion</title>
<ellipse fill="none" stroke="black" cx="393" cy="-18" rx="44.271" ry="18"/>
<text text-anchor="middle" x="393" y="-14.3" font-family="Times,serif" font-size="14.00">Criterion</text>
</g>
<!-- Matter -->
<g id="node12" class="node"><title>Matter</title>
<ellipse fill="none" stroke="black" cx="309" cy="-306" rx="35.1455" ry="18"/>
<text text-anchor="middle" x="309" y="-302.3" font-family="Times,serif" font-size="14.00">Matter</text>
</g>
<!-- Department&#45;&gt;Matter -->
<g id="edge10" class="edge"><title>Department&#45;&gt;Matter</title>
<path fill="none" stroke="#b95edc" d="M439.048,-426.175C422.519,-407.687 398.081,-381.306 375,-360 362.717,-348.662 348.319,-336.935 336.11,-327.404"/>
<ellipse fill="none" stroke="#b95edc" cx="442.106" cy="-429.615" rx="4.00002" ry="4.00002"/>
<polygon fill="#b95edc" stroke="#b95edc" points="335.976,-327.3 330.812,-317.627 332.019,-324.244 328.061,-321.188 328.061,-321.188 328.061,-321.188 332.019,-324.244 325.311,-324.75 335.976,-327.3 335.976,-327.3"/>
</g>
<!-- Teacher -->
<g id="node23" class="node"><title>Teacher</title>
<ellipse fill="none" stroke="black" cx="462" cy="-378" rx="39.9464" ry="18"/>
<text text-anchor="middle" x="462" y="-374.3" font-family="Times,serif" font-size="14.00">Teacher</text>
</g>
<!-- Department&#45;&gt;Teacher -->
<g id="edge11" class="edge"><title>Department&#45;&gt;Teacher</title>
<path fill="none" stroke="#8bc708" d="M460.171,-421.665C460.391,-416.552 460.62,-411.21 460.838,-406.104"/>
<polygon fill="#8bc708" stroke="#8bc708" points="460.17,-421.706 455.246,-431.504 459.956,-426.701 459.742,-431.697 459.742,-431.697 459.742,-431.697 459.956,-426.701 464.237,-431.889 460.17,-421.706 460.17,-421.706"/>
<polygon fill="#8bc708" stroke="#8bc708" points="460.839,-406.095 465.763,-396.297 461.053,-401.1 461.267,-396.104 461.267,-396.104 461.267,-396.104 461.053,-401.1 456.771,-395.912 460.839,-406.095 460.839,-406.095"/>
</g>
<!-- Departmenttype -->
<g id="node9" class="node"><title>Departmenttype</title>
<ellipse fill="none" stroke="black" cx="459" cy="-543" rx="70.2668" ry="18"/>
<text text-anchor="middle" x="459" y="-539.3" font-family="Times,serif" font-size="14.00">Departmenttype</text>
</g>
<!-- Departmenttype&#45;&gt;Department -->
<g id="edge12" class="edge"><title>Departmenttype&#45;&gt;Department</title>
<path fill="none" stroke="#6c14a2" d="M459,-516.729C459,-504.725 459,-490.362 459,-478.129"/>
<ellipse fill="none" stroke="#6c14a2" cx="459" cy="-520.884" rx="4" ry="4"/>
<polygon fill="#6c14a2" stroke="#6c14a2" points="459,-478.04 463.5,-468.04 459,-473.04 459,-468.04 459,-468.04 459,-468.04 459,-473.04 454.5,-468.04 459,-478.04 459,-478.04"/>
</g>
<!-- Group -->
<g id="node10" class="node"><title>Group</title>
<ellipse fill="none" stroke="black" cx="572" cy="-378" rx="35.6194" ry="18"/>
<text text-anchor="middle" x="572" y="-374.3" font-family="Times,serif" font-size="14.00">Group</text>
</g>
<!-- Group&#45;&gt;Classroom -->
<g id="edge13" class="edge"><title>Group&#45;&gt;Classroom</title>
<path fill="none" stroke="#5f1933" d="M572,-351.64C572,-346.063 572,-340.132 572,-334.476"/>
<ellipse fill="none" stroke="#5f1933" cx="572" cy="-355.697" rx="4" ry="4"/>
<polygon fill="#5f1933" stroke="#5f1933" points="572,-334.104 576.5,-324.104 572,-329.104 572,-324.104 572,-324.104 572,-324.104 572,-329.104 567.5,-324.104 572,-334.104 572,-334.104"/>
</g>
<!-- Institute&#45;&gt;Profile -->
<g id="edge14" class="edge"><title>Institute&#45;&gt;Profile</title>
<path fill="none" stroke="#f4abe9" d="M191.924,-424.217C206.658,-391.797 234.581,-333.739 265,-288 271.794,-277.784 280.21,-267.244 287.855,-258.281"/>
<ellipse fill="none" stroke="#f4abe9" cx="190.112" cy="-428.237" rx="4.00002" ry="4.00002"/>
<polygon fill="#f4abe9" stroke="#f4abe9" points="288.024,-258.087 297.985,-253.502 291.308,-254.317 294.592,-250.547 294.592,-250.547 294.592,-250.547 291.308,-254.317 291.199,-247.591 288.024,-258.087 288.024,-258.087"/>
</g>
<!-- Matter&#45;&gt;Profile -->
<g id="edge15" class="edge"><title>Matter&#45;&gt;Profile</title>
<path fill="none" stroke="#837c25" d="M309,-279.64C309,-274.063 309,-268.132 309,-262.476"/>
<ellipse fill="none" stroke="#837c25" cx="309" cy="-283.697" rx="4" ry="4"/>
<polygon fill="#837c25" stroke="#837c25" points="309,-262.104 313.5,-252.104 309,-257.104 309,-252.104 309,-252.104 309,-252.104 309,-257.104 304.5,-252.104 309,-262.104 309,-262.104"/>
</g>
<!-- Matter&#45;&gt;Contentblock -->
<g id="edge16" class="edge"><title>Matter&#45;&gt;Contentblock</title>
<path fill="none" stroke="#7c2636" d="M337.993,-287.505C353.864,-277.927 373.637,-265.995 390.322,-255.926"/>
<ellipse fill="none" stroke="#7c2636" cx="334.243" cy="-289.767" rx="4.00002" ry="4.00002"/>
<polygon fill="#7c2636" stroke="#7c2636" points="390.667,-255.718 401.554,-254.404 394.948,-253.135 399.229,-250.552 399.229,-250.552 399.229,-250.552 394.948,-253.135 396.904,-246.699 390.667,-255.718 390.667,-255.718"/>
</g>
<!-- Tlresult -->
<g id="node24" class="node"><title>Tlresult</title>
<ellipse fill="none" stroke="black" cx="250" cy="-90" rx="38.4949" ry="18"/>
<text text-anchor="middle" x="250" y="-86.3" font-family="Times,serif" font-size="14.00">Tlresult</text>
</g>
<!-- Matter&#45;&gt;Tlresult -->
<g id="edge17" class="edge"><title>Matter&#45;&gt;Tlresult</title>
<path fill="none" stroke="#5fc152" d="M286.127,-284.214C277.692,-275.186 268.986,-263.947 264,-252 245.652,-208.033 245.485,-151.558 247.452,-118.512"/>
<ellipse fill="none" stroke="#5fc152" cx="289.077" cy="-287.231" rx="4.00002" ry="4.00002"/>
<polygon fill="#5fc152" stroke="#5fc152" points="247.472,-118.23 252.667,-108.573 247.825,-113.243 248.178,-108.255 248.178,-108.255 248.178,-108.255 247.825,-113.243 243.69,-107.938 247.472,-118.23 247.472,-118.23"/>
</g>
<!-- Objetive -->
<g id="node13" class="node"><title>Objetive</title>
<ellipse fill="none" stroke="black" cx="762" cy="-306" rx="42.3701" ry="18"/>
<text text-anchor="middle" x="762" y="-302.3" font-family="Times,serif" font-size="14.00">Objetive</text>
</g>
<!-- Objetive&#45;&gt;ObjetiveAverage -->
<g id="edge18" class="edge"><title>Objetive&#45;&gt;ObjetiveAverage</title>
<path fill="none" stroke="#078bce" d="M762,-279.64C762,-274.063 762,-268.132 762,-262.476"/>
<ellipse fill="none" stroke="#078bce" cx="762" cy="-283.697" rx="4" ry="4"/>
<polygon fill="#078bce" stroke="#078bce" points="762,-262.104 766.5,-252.104 762,-257.104 762,-252.104 762,-252.104 762,-252.104 762,-257.104 757.5,-252.104 762,-262.104 762,-262.104"/>
</g>
<!-- Profile&#45;&gt;Qualifyingentity -->
<g id="edge19" class="edge"><title>Profile&#45;&gt;Qualifyingentity</title>
<path fill="none" stroke="#a2534b" d="M344.741,-219.338C347.866,-218.192 350.986,-217.065 354,-216 389.928,-203.307 430.701,-189.895 462.226,-179.738"/>
<ellipse fill="none" stroke="#a2534b" cx="340.767" cy="-220.811" rx="4.00001" ry="4.00001"/>
<polygon fill="#a2534b" stroke="#a2534b" points="462.597,-179.619 473.495,-180.845 467.358,-178.09 472.118,-176.56 472.118,-176.56 472.118,-176.56 467.358,-178.09 470.742,-172.276 462.597,-179.619 462.597,-179.619"/>
</g>
<!-- QualifyingentityTlresult -->
<g id="node18" class="node"><title>QualifyingentityTlresult</title>
<ellipse fill="none" stroke="black" cx="229" cy="-18" rx="100.611" ry="18"/>
<text text-anchor="middle" x="229" y="-14.3" font-family="Times,serif" font-size="14.00">QualifyingentityTlresult</text>
</g>
<!-- Profile&#45;&gt;QualifyingentityTlresult -->
<g id="edge20" class="edge"><title>Profile&#45;&gt;QualifyingentityTlresult</title>
<path fill="none" stroke="#a794ad" d="M282.47,-212.088C256.302,-189.607 217.973,-151.224 202,-108 194.231,-86.9771 202.824,-62.5868 212.321,-44.6613"/>
<polygon fill="#a794ad" stroke="#a794ad" points="282.501,-212.114 287.27,-221.989 286.332,-215.328 290.162,-218.542 290.162,-218.542 290.162,-218.542 286.332,-215.328 293.054,-215.094 282.501,-212.114 282.501,-212.114"/>
<polygon fill="#a794ad" stroke="#a794ad" points="212.343,-44.6213 221.199,-38.1533 214.815,-40.275 217.287,-35.9287 217.287,-35.9287 217.287,-35.9287 214.815,-40.275 213.375,-33.7041 212.343,-44.6213 212.343,-44.6213"/>
</g>
<!-- Profile&#45;&gt;Tlresult -->
<g id="edge21" class="edge"><title>Profile&#45;&gt;Tlresult</title>
<path fill="none" stroke="#7f9b47" d="M298.068,-206.688C287.469,-181.179 271.482,-142.703 260.896,-117.224"/>
<polygon fill="#7f9b47" stroke="#7f9b47" points="298.163,-206.918 297.845,-217.88 300.082,-211.536 302,-216.153 302,-216.153 302,-216.153 300.082,-211.536 306.156,-214.426 298.163,-206.918 298.163,-206.918"/>
<polygon fill="#7f9b47" stroke="#7f9b47" points="260.828,-117.06 261.146,-106.098 258.909,-112.442 256.991,-107.825 256.991,-107.825 256.991,-107.825 258.909,-112.442 252.835,-109.552 260.828,-117.06 260.828,-117.06"/>
</g>
<!-- Score -->
<g id="node21" class="node"><title>Score</title>
<ellipse fill="none" stroke="black" cx="663" cy="-18" rx="32.2457" ry="18"/>
<text text-anchor="middle" x="663" y="-14.3" font-family="Times,serif" font-size="14.00">Score</text>
</g>
<!-- Profile&#45;&gt;Score -->
<g id="edge22" class="edge"><title>Profile&#45;&gt;Score</title>
<path fill="none" stroke="#d45cdc" d="M313.407,-206.016C317.299,-187.54 324.238,-163.035 336,-144 360.458,-104.418 370.799,-93.6196 412,-72 479.335,-36.6673 568.5,-24.8893 620.426,-20.9632"/>
<polygon fill="#d45cdc" stroke="#d45cdc" points="313.404,-206.032 307.083,-214.993 312.452,-210.94 311.501,-215.849 311.501,-215.849 311.501,-215.849 312.452,-210.94 315.919,-216.706 313.404,-206.032 313.404,-206.032"/>
<polygon fill="#d45cdc" stroke="#d45cdc" points="620.632,-20.949 630.919,-24.7476 625.62,-20.6037 630.608,-20.2584 630.608,-20.2584 630.608,-20.2584 625.62,-20.6037 630.298,-15.7691 620.632,-20.949 620.632,-20.949"/>
</g>
<!-- Qualifyingentity&#45;&gt;QualifyingentityTlresult -->
<g id="edge23" class="edge"><title>Qualifyingentity&#45;&gt;QualifyingentityTlresult</title>
<path fill="none" stroke="#d9608f" d="M471.075,-143.239C447.408,-133.378 417.841,-120.589 392,-108 347.886,-86.51 298.615,-59.1165 265.909,-40.4338"/>
<ellipse fill="none" stroke="#d9608f" cx="474.845" cy="-144.802" rx="4.00002" ry="4.00002"/>
<polygon fill="#d9608f" stroke="#d9608f" points="265.817,-40.3812 259.38,-31.5036 261.48,-37.8943 257.142,-35.4075 257.142,-35.4075 257.142,-35.4075 261.48,-37.8943 254.904,-39.3114 265.817,-40.3812 265.817,-40.3812"/>
</g>
<!-- Qualifyingentity&#45;&gt;Tlresult -->
<g id="edge24" class="edge"><title>Qualifyingentity&#45;&gt;Tlresult</title>
<path fill="none" stroke="#1de14f" d="M457.628,-145.845C407.904,-132.71 337.096,-114.006 292.359,-102.189"/>
<polygon fill="#1de14f" stroke="#1de14f" points="457.649,-145.851 466.168,-152.755 462.483,-147.128 467.317,-148.405 467.317,-148.405 467.317,-148.405 462.483,-147.128 468.467,-144.054 457.649,-145.851 457.649,-145.851"/>
<polygon fill="#1de14f" stroke="#1de14f" points="292.344,-102.185 283.825,-95.2806 287.51,-100.908 282.676,-99.6313 282.676,-99.6313 282.676,-99.6313 287.51,-100.908 281.527,-103.982 292.344,-102.185 292.344,-102.185"/>
</g>
<!-- Qualifyingentity&#45;&gt;Score -->
<g id="edge25" class="edge"><title>Qualifyingentity&#45;&gt;Score</title>
<path fill="none" stroke="#4527ef" d="M578.121,-147.929C601.598,-140.054 626.511,-127.591 643,-108 657.389,-90.9047 661.992,-65.6185 663.226,-46.3631"/>
<ellipse fill="none" stroke="#4527ef" cx="574.041" cy="-149.22" rx="4.00001" ry="4.00001"/>
<polygon fill="#4527ef" stroke="#4527ef" points="663.235,-46.0969 668.105,-36.2716 663.422,-41.1003 663.608,-36.1038 663.608,-36.1038 663.608,-36.1038 663.422,-41.1003 659.111,-35.9361 663.235,-46.0969 663.235,-46.0969"/>
</g>
<!-- QualifyingentityCriterion -->
<g id="node17" class="node"><title>QualifyingentityCriterion</title>
<ellipse fill="none" stroke="black" cx="528" cy="-90" rx="106.386" ry="18"/>
<text text-anchor="middle" x="528" y="-86.3" font-family="Times,serif" font-size="14.00">QualifyingentityCriterion</text>
</g>
<!-- Qualifyingentity&#45;&gt;QualifyingentityCriterion -->
<g id="edge26" class="edge"><title>Qualifyingentity&#45;&gt;QualifyingentityCriterion</title>
<path fill="none" stroke="#1e241e" d="M519.71,-135.64C520.772,-129.92 521.903,-123.828 522.978,-118.042"/>
<ellipse fill="none" stroke="#1e241e" cx="518.944" cy="-139.764" rx="4.00001" ry="4.00001"/>
<polygon fill="#1e241e" stroke="#1e241e" points="522.997,-117.936 529.248,-108.926 523.91,-113.02 524.823,-108.104 524.823,-108.104 524.823,-108.104 523.91,-113.02 520.399,-107.283 522.997,-117.936 522.997,-117.936"/>
</g>
<!-- Qualifyingentity&#45;&gt;Criterion -->
<g id="edge27" class="edge"><title>Qualifyingentity&#45;&gt;Criterion</title>
<path fill="none" stroke="#135742" d="M460.741,-143.857C442.785,-135.667 424.277,-124.051 412,-108 398.537,-90.3988 394.123,-65.3697 392.884,-46.3349"/>
<polygon fill="#135742" stroke="#135742" points="460.85,-143.903 468.277,-151.971 465.447,-145.868 470.045,-147.833 470.045,-147.833 470.045,-147.833 465.447,-145.868 471.814,-143.695 460.85,-143.903 460.85,-143.903"/>
<polygon fill="#135742" stroke="#135742" points="392.878,-46.1844 396.977,-36.0134 392.679,-41.1883 392.48,-36.1923 392.48,-36.1923 392.48,-36.1923 392.679,-41.1883 387.984,-36.3712 392.878,-46.1844 392.878,-46.1844"/>
</g>
<!-- Qualifyingentity&#45;&gt;Student -->
<g id="edge28" class="edge"><title>Qualifyingentity&#45;&gt;Student</title>
<path fill="none" stroke="#ed91eb" d="M566.815,-144.208C604.543,-131.982 654.948,-115.646 689.913,-104.315"/>
<polygon fill="#ed91eb" stroke="#ed91eb" points="566.673,-144.254 555.772,-143.056 561.916,-145.796 557.16,-147.337 557.16,-147.337 557.16,-147.337 561.916,-145.796 558.547,-151.618 566.673,-144.254 566.673,-144.254"/>
<polygon fill="#ed91eb" stroke="#ed91eb" points="690.276,-104.198 701.176,-105.395 695.033,-102.656 699.789,-101.115 699.789,-101.115 699.789,-101.115 695.033,-102.656 698.402,-96.8338 690.276,-104.198 690.276,-104.198"/>
</g>
<!-- Quarter -->
<g id="node19" class="node"><title>Quarter</title>
<ellipse fill="none" stroke="black" cx="440" cy="-306" rx="39.4691" ry="18"/>
<text text-anchor="middle" x="440" y="-302.3" font-family="Times,serif" font-size="14.00">Quarter</text>
</g>
<!-- Quarter&#45;&gt;Contentblock -->
<g id="edge29" class="edge"><title>Quarter&#45;&gt;Contentblock</title>
<path fill="none" stroke="#137428" d="M434.64,-279.987C433.411,-274.249 432.097,-268.121 430.848,-262.293"/>
<ellipse fill="none" stroke="#137428" cx="435.531" cy="-284.144" rx="4.00001" ry="4.00001"/>
<polygon fill="#137428" stroke="#137428" points="430.797,-262.053 433.102,-251.332 429.75,-257.164 428.702,-252.275 428.702,-252.275 428.702,-252.275 429.75,-257.164 424.302,-253.218 430.797,-262.053 430.797,-262.053"/>
</g>
<!-- Student&#45;&gt;Score -->
<g id="edge30" class="edge"><title>Student&#45;&gt;Score</title>
<path fill="none" stroke="#2dd79a" d="M709.733,-67.1071C701.902,-59.0457 693.017,-49.8999 685.113,-41.7635"/>
<ellipse fill="none" stroke="#2dd79a" cx="712.783" cy="-70.2468" rx="4.00002" ry="4.00002"/>
<polygon fill="#2dd79a" stroke="#2dd79a" points="684.87,-41.513 681.13,-31.2046 681.386,-37.9266 677.902,-34.3402 677.902,-34.3402 677.902,-34.3402 681.386,-37.9266 674.674,-37.4757 684.87,-41.513 684.87,-41.513"/>
</g>
<!-- Teacher&#45;&gt;Classroom -->
<g id="edge31" class="edge"><title>Teacher&#45;&gt;Classroom</title>
<path fill="none" stroke="#3c6a8f" d="M491.091,-358.487C506.006,-348.996 524.215,-337.409 539.579,-327.632"/>
<ellipse fill="none" stroke="#3c6a8f" cx="487.635" cy="-360.687" rx="4.00002" ry="4.00002"/>
<polygon fill="#3c6a8f" stroke="#3c6a8f" points="539.814,-327.482 550.666,-325.91 544.032,-324.798 548.25,-322.114 548.25,-322.114 548.25,-322.114 544.032,-324.798 545.834,-318.317 539.814,-327.482 539.814,-327.482"/>
</g>
<!-- Teacher&#45;&gt;Profile -->
<g id="edge32" class="edge"><title>Teacher&#45;&gt;Profile</title>
<path fill="none" stroke="#75b320" d="M433.933,-357.879C420.485,-348.265 404.424,-336.105 391,-324 368.166,-303.41 344.642,-277.276 328.678,-258.666"/>
<ellipse fill="none" stroke="#75b320" cx="437.433" cy="-360.352" rx="4.00002" ry="4.00002"/>
<polygon fill="#75b320" stroke="#75b320" points="328.589,-258.561 325.544,-248.027 325.352,-254.751 322.115,-250.94 322.115,-250.94 322.115,-250.94 325.352,-254.751 318.685,-253.854 328.589,-258.561 328.589,-258.561"/>
</g>
<!-- Tlresult&#45;&gt;QualifyingentityTlresult -->
<g id="edge33" class="edge"><title>Tlresult&#45;&gt;QualifyingentityTlresult</title>
<path fill="none" stroke="#090d1b" d="M242.58,-64.2675C240.802,-58.34 238.894,-51.9814 237.088,-45.9587"/>
<ellipse fill="none" stroke="#090d1b" cx="243.767" cy="-68.2236" rx="4.00001" ry="4.00001"/>
<polygon fill="#090d1b" stroke="#090d1b" points="237.056,-45.8536 238.493,-34.9822 235.619,-41.0644 234.183,-36.2753 234.183,-36.2753 234.183,-36.2753 235.619,-41.0644 229.872,-37.5684 237.056,-45.8536 237.056,-45.8536"/>
</g>
<!-- Tlresult&#45;&gt;Criterion -->
<g id="edge34" class="edge"><title>Tlresult&#45;&gt;Criterion</title>
<path fill="none" stroke="#47f26f" d="M283.037,-72.828C304.977,-62.0883 333.796,-47.9812 356.426,-36.9032"/>
<ellipse fill="none" stroke="#47f26f" cx="279.158" cy="-74.7267" rx="4.00002" ry="4.00002"/>
<polygon fill="#47f26f" stroke="#47f26f" points="356.727,-36.7563 367.687,-36.4014 361.217,-34.558 365.708,-32.3596 365.708,-32.3596 365.708,-32.3596 361.217,-34.558 363.73,-28.3179 356.727,-36.7563 356.727,-36.7563"/>
</g>
<!-- Trainercycle -->
<g id="node25" class="node"><title>Trainercycle</title>
<ellipse fill="none" stroke="black" cx="309" cy="-378" rx="57.2927" ry="18"/>
<text text-anchor="middle" x="309" y="-374.3" font-family="Times,serif" font-size="14.00">Trainercycle</text>
</g>
<!-- Trainercycle&#45;&gt;Matter -->
<g id="edge35" class="edge"><title>Trainercycle&#45;&gt;Matter</title>
<path fill="none" stroke="#9fed16" d="M309,-351.64C309,-346.063 309,-340.132 309,-334.476"/>
<ellipse fill="none" stroke="#9fed16" cx="309" cy="-355.697" rx="4" ry="4"/>
<polygon fill="#9fed16" stroke="#9fed16" points="309,-334.104 313.5,-324.104 309,-329.104 309,-324.104 309,-324.104 309,-324.104 309,-329.104 304.5,-324.104 309,-334.104 309,-334.104"/>
</g>
<!-- Trainercycletype -->
<g id="node26" class="node"><title>Trainercycletype</title>
<ellipse fill="none" stroke="black" cx="313" cy="-450" rx="73.1654" ry="18"/>
<text text-anchor="middle" x="313" y="-446.3" font-family="Times,serif" font-size="14.00">Trainercycletype</text>
</g>
<!-- Trainercycletype&#45;&gt;Trainercycle -->
<g id="edge36" class="edge"><title>Trainercycletype&#45;&gt;Trainercycle</title>
<path fill="none" stroke="#7f677e" d="M311.551,-423.64C311.232,-418.063 310.893,-412.132 310.57,-406.476"/>
<ellipse fill="none" stroke="#7f677e" cx="311.783" cy="-427.703" rx="4" ry="4"/>
<polygon fill="#7f677e" stroke="#7f677e" points="310.548,-406.088 314.47,-395.848 310.263,-401.096 309.977,-396.104 309.977,-396.104 309.977,-396.104 310.263,-401.096 305.485,-396.361 310.548,-406.088 310.548,-406.088"/>
</g>
<!-- User -->
<g id="node27" class="node"><title>User</title>
<ellipse fill="none" stroke="black" cx="651" cy="-543" rx="28.3955" ry="18"/>
<text text-anchor="middle" x="651" y="-539.3" font-family="Times,serif" font-size="14.00">User</text>
</g>
</g>
</svg>
