<?xml version="1.0" encoding="UTF-8" standalone="no"?>
<!DOCTYPE svg PUBLIC "-//W3C//DTD SVG 1.1//EN"
 "http://www.w3.org/Graphics/SVG/1.1/DTD/svg11.dtd">
<!-- Generated by graphviz version 2.30.1 (20130531.2229)
 -->
<!-- Title: models_diagram Pages: 1 -->
<svg width="835pt" height="590pt"
 viewBox="0.00 0.00 835.00 590.00" xmlns="http://www.w3.org/2000/svg" xmlns:xlink="http://www.w3.org/1999/xlink">
<g id="graph0" class="graph" transform="scale(1 1) rotate(0) translate(4 586)">
<title>models_diagram</title>
<polygon fill="white" stroke="white" points="-4,5 -4,-586 832,-586 832,5 -4,5"/>
<!-- _diagram_info -->
<g id="node1" class="node"><title>_diagram_info</title>
<text text-anchor="start" x="71.5" y="-567.6" font-family="Times,serif" font-size="13.00">Models diagram</text>
<text text-anchor="start" x="71.5" y="-553.6" font-family="Times,serif" font-size="13.00">Date: May 31 2013 &#45; 23:33</text>
<text text-anchor="start" x="71.5" y="-539.6" font-family="Times,serif" font-size="13.00">Migration version: 20130419104053</text>
<text text-anchor="start" x="71.5" y="-525.6" font-family="Times,serif" font-size="13.00">Generated by RailRoady 1.1.0</text>
<text text-anchor="start" x="71.5" y="-511.6" font-family="Times,serif" font-size="13.00">http://railroady.prestonlee.com</text>
</g>
<!-- Aacce -->
<g id="node2" class="node"><title>Aacce</title>
<ellipse fill="none" stroke="black" cx="322" cy="-543" rx="33.2209" ry="18"/>
<text text-anchor="middle" x="322" y="-539.3" font-family="Times,serif" font-size="14.00">Aacce</text>
</g>
<!-- Institute -->
<g id="node11" class="node"><title>Institute</title>
<ellipse fill="none" stroke="black" cx="205" cy="-450" rx="39.9464" ry="18"/>
<text text-anchor="middle" x="205" y="-446.3" font-family="Times,serif" font-size="14.00">Institute</text>
</g>
<!-- Aacce&#45;&gt;Institute -->
<g id="edge1" class="edge"><title>Aacce&#45;&gt;Institute</title>
<path fill="none" stroke="#6d9beb" d="M299.721,-521.539C293.164,-515.73 285.896,-509.493 279,-504 264.906,-492.774 248.687,-481.033 235.031,-471.464"/>
<ellipse fill="none" stroke="#6d9beb" cx="303.022" cy="-524.495" rx="4.00002" ry="4.00002"/>
<polygon fill="#6d9beb" stroke="#6d9beb" points="234.687,-471.225 229.045,-461.822 230.582,-468.371 226.476,-465.517 226.476,-465.517 226.476,-465.517 230.582,-468.371 223.907,-469.211 234.687,-471.225 234.687,-471.225"/>
</g>
<!-- Department -->
<g id="node8" class="node"><title>Department</title>
<ellipse fill="none" stroke="black" cx="487" cy="-378" rx="54.3924" ry="18"/>
<text text-anchor="middle" x="487" y="-374.3" font-family="Times,serif" font-size="14.00">Department</text>
</g>
<!-- Aacce&#45;&gt;Department -->
<g id="edge2" class="edge"><title>Aacce&#45;&gt;Department</title>
<path fill="none" stroke="#f79371" d="M344.162,-521.39C350.717,-515.578 358.012,-509.377 365,-504 387.86,-486.409 397.958,-487.729 419,-468 439.451,-448.826 458.434,-423.022 471.116,-404.136"/>
<ellipse fill="none" stroke="#f79371" cx="340.867" cy="-524.353" rx="4.00002" ry="4.00002"/>
<polygon fill="#f79371" stroke="#f79371" points="471.147,-404.089 480.406,-398.213 473.898,-399.913 476.648,-395.738 476.648,-395.738 476.648,-395.738 473.898,-399.913 472.89,-393.262 471.147,-404.089 471.147,-404.089"/>
</g>
<!-- Ability -->
<g id="node3" class="node"><title>Ability</title>
<polygon fill="none" stroke="black" points="430.25,-561 373.75,-561 373.75,-525 430.25,-525 430.25,-561"/>
<text text-anchor="middle" x="402" y="-539.3" font-family="Times,serif" font-size="14.00">Ability</text>
</g>
<!-- Classroom -->
<g id="node4" class="node"><title>Classroom</title>
<ellipse fill="none" stroke="black" cx="276" cy="-234" rx="50.5427" ry="18"/>
<text text-anchor="middle" x="276" y="-230.3" font-family="Times,serif" font-size="14.00">Classroom</text>
</g>
<!-- Schedule -->
<g id="node20" class="node"><title>Schedule</title>
<ellipse fill="none" stroke="black" cx="209" cy="-162" rx="44.271" ry="18"/>
<text text-anchor="middle" x="209" y="-158.3" font-family="Times,serif" font-size="14.00">Schedule</text>
</g>
<!-- Classroom&#45;&gt;Schedule -->
<g id="edge3" class="edge"><title>Classroom&#45;&gt;Schedule</title>
<path fill="none" stroke="#3e78c0" d="M254.878,-210.932C247.481,-203.204 239.148,-194.498 231.633,-186.646"/>
<ellipse fill="none" stroke="#3e78c0" cx="257.695" cy="-213.875" rx="4.00002" ry="4.00002"/>
<polygon fill="#3e78c0" stroke="#3e78c0" points="231.37,-186.372 227.706,-176.036 227.913,-182.759 224.455,-179.147 224.455,-179.147 224.455,-179.147 227.913,-182.759 221.204,-182.259 231.37,-186.372 231.37,-186.372"/>
</g>
<!-- Qualifyingentity -->
<g id="node16" class="node"><title>Qualifyingentity</title>
<ellipse fill="none" stroke="black" cx="394" cy="-162" rx="72.2155" ry="18"/>
<text text-anchor="middle" x="394" y="-158.3" font-family="Times,serif" font-size="14.00">Qualifyingentity</text>
</g>
<!-- Classroom&#45;&gt;Qualifyingentity -->
<g id="edge4" class="edge"><title>Classroom&#45;&gt;Qualifyingentity</title>
<path fill="none" stroke="#4a1c20" d="M308.16,-213.922C323.688,-204.711 342.367,-193.63 358.331,-184.16"/>
<ellipse fill="none" stroke="#4a1c20" cx="304.465" cy="-216.114" rx="4.00002" ry="4.00002"/>
<polygon fill="#4a1c20" stroke="#4a1c20" points="358.771,-183.899 369.667,-182.667 363.071,-181.348 367.371,-178.797 367.371,-178.797 367.371,-178.797 363.071,-181.348 365.075,-174.926 358.771,-183.899 358.771,-183.899"/>
</g>
<!-- ObjetiveAverage -->
<g id="node14" class="node"><title>ObjetiveAverage</title>
<ellipse fill="none" stroke="black" cx="73" cy="-162" rx="73.1654" ry="18"/>
<text text-anchor="middle" x="73" y="-158.3" font-family="Times,serif" font-size="14.00">ObjetiveAverage</text>
</g>
<!-- Classroom&#45;&gt;ObjetiveAverage -->
<g id="edge5" class="edge"><title>Classroom&#45;&gt;ObjetiveAverage</title>
<path fill="none" stroke="#d5f884" d="M233.369,-218.3C201.296,-207.24 157.239,-192.048 123.417,-180.385"/>
<ellipse fill="none" stroke="#d5f884" cx="237.322" cy="-219.663" rx="4.00001" ry="4.00001"/>
<polygon fill="#d5f884" stroke="#d5f884" points="123.175,-180.302 115.189,-172.788 118.448,-178.672 113.722,-177.042 113.722,-177.042 113.722,-177.042 118.448,-178.672 112.255,-181.296 123.175,-180.302 123.175,-180.302"/>
</g>
<!-- Content -->
<g id="node5" class="node"><title>Content</title>
<ellipse fill="none" stroke="black" cx="524" cy="-162" rx="39.9464" ry="18"/>
<text text-anchor="middle" x="524" y="-158.3" font-family="Times,serif" font-size="14.00">Content</text>
</g>
<!-- Contentblock -->
<g id="node6" class="node"><title>Contentblock</title>
<ellipse fill="none" stroke="black" cx="417" cy="-234" rx="61.6163" ry="18"/>
<text text-anchor="middle" x="417" y="-230.3" font-family="Times,serif" font-size="14.00">Contentblock</text>
</g>
<!-- Contentblock&#45;&gt;Content -->
<g id="edge6" class="edge"><title>Contentblock&#45;&gt;Content</title>
<path fill="none" stroke="#047c7c" d="M447.723,-212.901C462.16,-203.456 479.318,-192.231 493.701,-182.822"/>
<ellipse fill="none" stroke="#047c7c" cx="444.36" cy="-215.101" rx="4.00002" ry="4.00002"/>
<polygon fill="#047c7c" stroke="#047c7c" points="493.881,-182.704 504.713,-180.995 498.065,-179.967 502.249,-177.229 502.249,-177.229 502.249,-177.229 498.065,-179.967 499.786,-173.464 493.881,-182.704 493.881,-182.704"/>
</g>
<!-- Contentblock&#45;&gt;Qualifyingentity -->
<g id="edge7" class="edge"><title>Contentblock&#45;&gt;Qualifyingentity</title>
<path fill="none" stroke="#a36eed" d="M408.224,-206.29C406.477,-200.975 404.642,-195.388 402.891,-190.061"/>
<polygon fill="#a36eed" stroke="#a36eed" points="408.311,-206.555 407.157,-217.46 409.872,-211.305 411.432,-216.055 411.432,-216.055 411.432,-216.055 409.872,-211.305 415.707,-214.65 408.311,-206.555 408.311,-206.555"/>
<polygon fill="#a36eed" stroke="#a36eed" points="402.798,-189.776 403.951,-178.871 401.237,-185.025 399.676,-180.275 399.676,-180.275 399.676,-180.275 401.237,-185.025 395.401,-181.68 402.798,-189.776 402.798,-189.776"/>
</g>
<!-- Criterion -->
<g id="node7" class="node"><title>Criterion</title>
<ellipse fill="none" stroke="black" cx="563" cy="-90" rx="44.271" ry="18"/>
<text text-anchor="middle" x="563" y="-86.3" font-family="Times,serif" font-size="14.00">Criterion</text>
</g>
<!-- Matter -->
<g id="node12" class="node"><title>Matter</title>
<ellipse fill="none" stroke="black" cx="359" cy="-306" rx="35.1455" ry="18"/>
<text text-anchor="middle" x="359" y="-302.3" font-family="Times,serif" font-size="14.00">Matter</text>
</g>
<!-- Department&#45;&gt;Matter -->
<g id="edge8" class="edge"><title>Department&#45;&gt;Matter</title>
<path fill="none" stroke="#75fb01" d="M452.871,-358.336C433.724,-347.865 409.978,-334.879 391.16,-324.588"/>
<ellipse fill="none" stroke="#75fb01" cx="456.658" cy="-360.406" rx="4.00002" ry="4.00002"/>
<polygon fill="#75fb01" stroke="#75fb01" points="391.133,-324.573 384.519,-315.827 386.747,-322.174 382.36,-319.775 382.36,-319.775 382.36,-319.775 386.747,-322.174 380.201,-323.723 391.133,-324.573 391.133,-324.573"/>
</g>
<!-- Teacher -->
<g id="node23" class="node"><title>Teacher</title>
<ellipse fill="none" stroke="black" cx="550" cy="-306" rx="39.9464" ry="18"/>
<text text-anchor="middle" x="550" y="-302.3" font-family="Times,serif" font-size="14.00">Teacher</text>
</g>
<!-- Department&#45;&gt;Teacher -->
<g id="edge9" class="edge"><title>Department&#45;&gt;Teacher</title>
<path fill="none" stroke="#006a46" d="M508.747,-352.837C515.272,-345.587 522.415,-337.65 528.897,-330.447"/>
<polygon fill="#006a46" stroke="#006a46" points="508.62,-352.978 498.585,-357.401 505.275,-356.694 501.93,-360.411 501.93,-360.411 501.93,-360.411 505.275,-356.694 505.275,-363.421 508.62,-352.978 508.62,-352.978"/>
<polygon fill="#006a46" stroke="#006a46" points="528.921,-330.421 538.956,-325.998 532.266,-326.705 535.611,-322.988 535.611,-322.988 535.611,-322.988 532.266,-326.705 532.266,-319.978 528.921,-330.421 528.921,-330.421"/>
</g>
<!-- Departmenttype -->
<g id="node9" class="node"><title>Departmenttype</title>
<ellipse fill="none" stroke="black" cx="537" cy="-450" rx="70.2668" ry="18"/>
<text text-anchor="middle" x="537" y="-446.3" font-family="Times,serif" font-size="14.00">Departmenttype</text>
</g>
<!-- Departmenttype&#45;&gt;Department -->
<g id="edge10" class="edge"><title>Departmenttype&#45;&gt;Department</title>
<path fill="none" stroke="#36e17c" d="M520.057,-425.28C515.193,-418.47 509.873,-411.023 504.951,-404.131"/>
<ellipse fill="none" stroke="#36e17c" cx="522.571" cy="-428.8" rx="4.00002" ry="4.00002"/>
<polygon fill="#36e17c" stroke="#36e17c" points="504.805,-403.926 502.654,-393.173 501.898,-399.858 498.992,-395.789 498.992,-395.789 498.992,-395.789 501.898,-399.858 495.33,-398.405 504.805,-403.926 504.805,-403.926"/>
</g>
<!-- Group -->
<g id="node10" class="node"><title>Group</title>
<ellipse fill="none" stroke="black" cx="270" cy="-306" rx="35.6194" ry="18"/>
<text text-anchor="middle" x="270" y="-302.3" font-family="Times,serif" font-size="14.00">Group</text>
</g>
<!-- Group&#45;&gt;Classroom -->
<g id="edge11" class="edge"><title>Group&#45;&gt;Classroom</title>
<path fill="none" stroke="#3b46f4" d="M272.174,-279.64C272.652,-274.063 273.16,-268.132 273.645,-262.476"/>
<ellipse fill="none" stroke="#3b46f4" cx="271.825" cy="-283.711" rx="4" ry="4"/>
<polygon fill="#3b46f4" stroke="#3b46f4" points="273.68,-262.068 279.017,-252.489 274.107,-257.086 274.534,-252.104 274.534,-252.104 274.534,-252.104 274.107,-257.086 270.05,-251.72 273.68,-262.068 273.68,-262.068"/>
</g>
<!-- Trainercycle -->
<g id="node25" class="node"><title>Trainercycle</title>
<ellipse fill="none" stroke="black" cx="269" cy="-378" rx="57.2927" ry="18"/>
<text text-anchor="middle" x="269" y="-374.3" font-family="Times,serif" font-size="14.00">Trainercycle</text>
</g>
<!-- Institute&#45;&gt;Trainercycle -->
<g id="edge12" class="edge"><title>Institute&#45;&gt;Trainercycle</title>
<path fill="none" stroke="#73ae6b" d="M225.039,-427.082C231.966,-419.506 239.767,-410.974 246.853,-403.223"/>
<ellipse fill="none" stroke="#73ae6b" cx="222.222" cy="-430.164" rx="4.00002" ry="4.00002"/>
<polygon fill="#73ae6b" stroke="#73ae6b" points="246.895,-403.178 256.964,-398.834 250.269,-399.488 253.642,-395.797 253.642,-395.797 253.642,-395.797 250.269,-399.488 250.321,-392.761 246.895,-403.178 246.895,-403.178"/>
</g>
<!-- Matter&#45;&gt;Classroom -->
<g id="edge13" class="edge"><title>Matter&#45;&gt;Classroom</title>
<path fill="none" stroke="#e98c05" d="M334.98,-284.742C324.771,-276.132 312.835,-266.066 302.382,-257.25"/>
<ellipse fill="none" stroke="#e98c05" cx="338.34" cy="-287.576" rx="4.00002" ry="4.00002"/>
<polygon fill="#e98c05" stroke="#e98c05" points="302.375,-257.244 297.631,-247.357 298.552,-254.02 294.73,-250.797 294.73,-250.797 294.73,-250.797 298.552,-254.02 291.829,-254.237 302.375,-257.244 302.375,-257.244"/>
</g>
<!-- Matter&#45;&gt;Contentblock -->
<g id="edge14" class="edge"><title>Matter&#45;&gt;Contentblock</title>
<path fill="none" stroke="#98f6bb" d="M377.398,-282.796C383.506,-275.424 390.341,-267.174 396.592,-259.631"/>
<ellipse fill="none" stroke="#98f6bb" cx="374.713" cy="-286.036" rx="4.00002" ry="4.00002"/>
<polygon fill="#98f6bb" stroke="#98f6bb" points="396.702,-259.498 406.547,-254.668 399.892,-255.647 403.082,-251.797 403.082,-251.797 403.082,-251.797 399.892,-255.647 399.617,-248.926 396.702,-259.498 396.702,-259.498"/>
</g>
<!-- Objetive -->
<g id="node13" class="node"><title>Objetive</title>
<ellipse fill="none" stroke="black" cx="73" cy="-234" rx="42.3701" ry="18"/>
<text text-anchor="middle" x="73" y="-230.3" font-family="Times,serif" font-size="14.00">Objetive</text>
</g>
<!-- Objetive&#45;&gt;ObjetiveAverage -->
<g id="edge15" class="edge"><title>Objetive&#45;&gt;ObjetiveAverage</title>
<path fill="none" stroke="#a8592e" d="M73,-207.64C73,-202.063 73,-196.132 73,-190.476"/>
<ellipse fill="none" stroke="#a8592e" cx="73" cy="-211.697" rx="4" ry="4"/>
<polygon fill="#a8592e" stroke="#a8592e" points="73.0001,-190.104 77.5,-180.104 73,-185.104 73,-180.104 73,-180.104 73,-180.104 73,-185.104 68.5,-180.104 73.0001,-190.104 73.0001,-190.104"/>
</g>
<!-- Profile -->
<g id="node15" class="node"><title>Profile</title>
<ellipse fill="none" stroke="black" cx="550" cy="-234" rx="36.096" ry="18"/>
<text text-anchor="middle" x="550" y="-230.3" font-family="Times,serif" font-size="14.00">Profile</text>
</g>
<!-- QualifyingentityTlresult -->
<g id="node18" class="node"><title>QualifyingentityTlresult</title>
<ellipse fill="none" stroke="black" cx="727" cy="-90" rx="100.611" ry="18"/>
<text text-anchor="middle" x="727" y="-86.3" font-family="Times,serif" font-size="14.00">QualifyingentityTlresult</text>
</g>
<!-- Profile&#45;&gt;QualifyingentityTlresult -->
<g id="edge16" class="edge"><title>Profile&#45;&gt;QualifyingentityTlresult</title>
<path fill="none" stroke="#a63dd4" d="M593.794,-225.136C623.288,-217.851 661.34,-204.329 687,-180 704.611,-163.303 715.037,-137.424 720.806,-117.867"/>
<polygon fill="#a63dd4" stroke="#a63dd4" points="593.495,-225.205 582.738,-223.076 588.624,-226.333 583.753,-227.46 583.753,-227.46 583.753,-227.46 588.624,-226.333 584.767,-231.845 593.495,-225.205 593.495,-225.205"/>
<polygon fill="#a63dd4" stroke="#a63dd4" points="720.858,-117.676 727.822,-109.205 722.168,-112.851 723.479,-108.026 723.479,-108.026 723.479,-108.026 722.168,-112.851 719.136,-106.846 720.858,-117.676 720.858,-117.676"/>
</g>
<!-- Profile&#45;&gt;Qualifyingentity -->
<g id="edge17" class="edge"><title>Profile&#45;&gt;Qualifyingentity</title>
<path fill="none" stroke="#2206ad" d="M516.425,-217.934C493.136,-207.484 461.919,-193.476 436.837,-182.222"/>
<ellipse fill="none" stroke="#2206ad" cx="520.24" cy="-219.646" rx="4.00002" ry="4.00002"/>
<polygon fill="#2206ad" stroke="#2206ad" points="436.677,-182.15 429.396,-173.95 432.115,-180.103 427.553,-178.056 427.553,-178.056 427.553,-178.056 432.115,-180.103 425.711,-182.162 436.677,-182.15 436.677,-182.15"/>
</g>
<!-- Qualifyingentity&#45;&gt;QualifyingentityTlresult -->
<g id="edge18" class="edge"><title>Qualifyingentity&#45;&gt;QualifyingentityTlresult</title>
<path fill="none" stroke="#103abb" d="M455.315,-148.111C511.518,-136.297 594.8,-118.79 654.327,-106.277"/>
<ellipse fill="none" stroke="#103abb" cx="451.048" cy="-149.008" rx="4.00001" ry="4.00001"/>
<polygon fill="#103abb" stroke="#103abb" points="654.623,-106.214 665.335,-108.561 659.516,-105.186 664.41,-104.157 664.41,-104.157 664.41,-104.157 659.516,-105.186 663.484,-99.7534 654.623,-106.214 654.623,-106.214"/>
</g>
<!-- Score -->
<g id="node21" class="node"><title>Score</title>
<ellipse fill="none" stroke="black" cx="225" cy="-18" rx="32.2457" ry="18"/>
<text text-anchor="middle" x="225" y="-14.3" font-family="Times,serif" font-size="14.00">Score</text>
</g>
<!-- Qualifyingentity&#45;&gt;Score -->
<g id="edge19" class="edge"><title>Qualifyingentity&#45;&gt;Score</title>
<path fill="none" stroke="#055233" d="M341.815,-144.925C320.305,-136.439 296.209,-124.333 278,-108 258.645,-90.6397 244.248,-64.5024 235.382,-45.0384"/>
<ellipse fill="none" stroke="#055233" cx="345.564" cy="-146.353" rx="4.00001" ry="4.00001"/>
<polygon fill="#055233" stroke="#055233" points="235.359,-44.9865 235.489,-34.0214 233.361,-40.4028 231.364,-35.8191 231.364,-35.8191 231.364,-35.8191 233.361,-40.4028 227.239,-37.6168 235.359,-44.9865 235.359,-44.9865"/>
</g>
<!-- QualifyingentityCriterion -->
<g id="node17" class="node"><title>QualifyingentityCriterion</title>
<ellipse fill="none" stroke="black" cx="394" cy="-90" rx="106.386" ry="18"/>
<text text-anchor="middle" x="394" y="-86.3" font-family="Times,serif" font-size="14.00">QualifyingentityCriterion</text>
</g>
<!-- Qualifyingentity&#45;&gt;QualifyingentityCriterion -->
<g id="edge20" class="edge"><title>Qualifyingentity&#45;&gt;QualifyingentityCriterion</title>
<path fill="none" stroke="#0d492e" d="M394,-135.64C394,-130.063 394,-124.132 394,-118.476"/>
<ellipse fill="none" stroke="#0d492e" cx="394" cy="-139.697" rx="4" ry="4"/>
<polygon fill="#0d492e" stroke="#0d492e" points="394,-118.104 398.5,-108.104 394,-113.104 394,-108.104 394,-108.104 394,-108.104 394,-113.104 389.5,-108.104 394,-118.104 394,-118.104"/>
</g>
<!-- Qualifyingentity&#45;&gt;Criterion -->
<g id="edge21" class="edge"><title>Qualifyingentity&#45;&gt;Criterion</title>
<path fill="none" stroke="#9f011a" d="M439.185,-142.284C465.581,-131.351 498.564,-117.69 523.849,-107.216"/>
<polygon fill="#9f011a" stroke="#9f011a" points="439.079,-142.328 428.118,-141.997 434.46,-144.241 429.841,-146.155 429.841,-146.155 429.841,-146.155 434.46,-144.241 431.563,-150.312 439.079,-142.328 439.079,-142.328"/>
<polygon fill="#9f011a" stroke="#9f011a" points="523.894,-107.198 534.855,-107.529 528.513,-105.284 533.133,-103.371 533.133,-103.371 533.133,-103.371 528.513,-105.284 531.411,-99.2136 523.894,-107.198 523.894,-107.198"/>
</g>
<!-- Student -->
<g id="node22" class="node"><title>Student</title>
<ellipse fill="none" stroke="black" cx="191" cy="-90" rx="39.4691" ry="18"/>
<text text-anchor="middle" x="191" y="-86.3" font-family="Times,serif" font-size="14.00">Student</text>
</g>
<!-- Qualifyingentity&#45;&gt;Student -->
<g id="edge22" class="edge"><title>Qualifyingentity&#45;&gt;Student</title>
<path fill="none" stroke="#d8327a" d="M343.482,-143.58C308.79,-131.617 263.367,-115.954 231.146,-104.844"/>
<polygon fill="#d8327a" stroke="#d8327a" points="343.954,-143.743 351.941,-151.257 348.681,-145.373 353.408,-147.003 353.408,-147.003 353.408,-147.003 348.681,-145.373 354.875,-142.749 343.954,-143.743 343.954,-143.743"/>
<polygon fill="#d8327a" stroke="#d8327a" points="231.051,-104.811 223.064,-97.2966 226.324,-103.181 221.597,-101.551 221.597,-101.551 221.597,-101.551 226.324,-103.181 220.13,-105.805 231.051,-104.811 231.051,-104.811"/>
</g>
<!-- Quarter -->
<g id="node19" class="node"><title>Quarter</title>
<ellipse fill="none" stroke="black" cx="452" cy="-306" rx="39.4691" ry="18"/>
<text text-anchor="middle" x="452" y="-302.3" font-family="Times,serif" font-size="14.00">Quarter</text>
</g>
<!-- Quarter&#45;&gt;Contentblock -->
<g id="edge23" class="edge"><title>Quarter&#45;&gt;Contentblock</title>
<path fill="none" stroke="#53cdc8" d="M439.913,-280.827C436.757,-274.515 433.341,-267.681 430.133,-261.266"/>
<ellipse fill="none" stroke="#53cdc8" cx="441.739" cy="-284.477" rx="4.00002" ry="4.00002"/>
<polygon fill="#53cdc8" stroke="#53cdc8" points="430.11,-261.22 429.663,-250.263 427.874,-256.747 425.638,-252.275 425.638,-252.275 425.638,-252.275 427.874,-256.747 421.613,-254.288 430.11,-261.22 430.11,-261.22"/>
</g>
<!-- Student&#45;&gt;Score -->
<g id="edge24" class="edge"><title>Student&#45;&gt;Score</title>
<path fill="none" stroke="#6f8383" d="M202.796,-64.7144C205.911,-58.3016 209.283,-51.3577 212.437,-44.8648"/>
<ellipse fill="none" stroke="#6f8383" cx="200.978" cy="-68.4569" rx="4.00002" ry="4.00002"/>
<polygon fill="#6f8383" stroke="#6f8383" points="212.476,-44.7841 220.893,-37.7551 214.661,-40.2865 216.845,-35.789 216.845,-35.789 216.845,-35.789 214.661,-40.2865 212.798,-33.8229 212.476,-44.7841 212.476,-44.7841"/>
</g>
<!-- Student&#45;&gt;Classroom -->
<g id="edge25" class="edge"><title>Student&#45;&gt;Classroom</title>
<path fill="none" stroke="#c6fba9" d="M223.9,-107.945C237.843,-116.809 252.934,-128.97 262,-144 273.211,-162.585 276.382,-187.172 276.934,-205.794"/>
<ellipse fill="none" stroke="#c6fba9" cx="220.173" cy="-105.686" rx="4.00002" ry="4.00002"/>
<polygon fill="#c6fba9" stroke="#c6fba9" points="276.936,-205.978 272.499,-216.006 276.967,-210.978 276.998,-215.978 276.998,-215.978 276.998,-215.978 276.967,-210.978 281.498,-215.95 276.936,-205.978 276.936,-205.978"/>
</g>
<!-- Teacher&#45;&gt;Classroom -->
<g id="edge26" class="edge"><title>Teacher&#45;&gt;Classroom</title>
<path fill="none" stroke="#e77a6f" d="M511.869,-291.606C507.878,-290.333 503.868,-289.107 500,-288 432.422,-268.664 414.375,-268.294 346,-252 339.693,-250.497 333.07,-248.906 326.517,-247.323"/>
<ellipse fill="none" stroke="#e77a6f" cx="515.674" cy="-292.85" rx="4.00001" ry="4.00001"/>
<polygon fill="#e77a6f" stroke="#e77a6f" points="326.052,-247.211 317.392,-240.484 321.193,-246.034 316.333,-244.858 316.333,-244.858 316.333,-244.858 321.193,-246.034 315.274,-249.232 326.052,-247.211 326.052,-247.211"/>
</g>
<!-- Teacher&#45;&gt;Profile -->
<g id="edge27" class="edge"><title>Teacher&#45;&gt;Profile</title>
<path fill="none" stroke="#fa5fea" d="M550,-279.64C550,-274.063 550,-268.132 550,-262.476"/>
<ellipse fill="none" stroke="#fa5fea" cx="550" cy="-283.697" rx="4" ry="4"/>
<polygon fill="#fa5fea" stroke="#fa5fea" points="550,-262.104 554.5,-252.104 550,-257.104 550,-252.104 550,-252.104 550,-252.104 550,-257.104 545.5,-252.104 550,-262.104 550,-262.104"/>
</g>
<!-- Tlresult -->
<g id="node24" class="node"><title>Tlresult</title>
<ellipse fill="none" stroke="black" cx="640" cy="-162" rx="38.4949" ry="18"/>
<text text-anchor="middle" x="640" y="-158.3" font-family="Times,serif" font-size="14.00">Tlresult</text>
</g>
<!-- Tlresult&#45;&gt;QualifyingentityTlresult -->
<g id="edge28" class="edge"><title>Tlresult&#45;&gt;QualifyingentityTlresult</title>
<path fill="none" stroke="#d7dd3a" d="M664.983,-140.899C675.365,-132.545 687.477,-122.8 698.229,-114.149"/>
<ellipse fill="none" stroke="#d7dd3a" cx="661.567" cy="-143.647" rx="4.00002" ry="4.00002"/>
<polygon fill="#d7dd3a" stroke="#d7dd3a" points="698.342,-114.058 708.955,-111.295 702.238,-110.923 706.134,-107.789 706.134,-107.789 706.134,-107.789 702.238,-110.923 703.313,-104.283 698.342,-114.058 698.342,-114.058"/>
</g>
<!-- Tlresult&#45;&gt;Criterion -->
<g id="edge29" class="edge"><title>Tlresult&#45;&gt;Criterion</title>
<path fill="none" stroke="#b30c3d" d="M616.673,-139.794C607.531,-131.483 597.03,-121.936 587.754,-113.504"/>
<ellipse fill="none" stroke="#b30c3d" cx="619.951" cy="-142.774" rx="4.00002" ry="4.00002"/>
<polygon fill="#b30c3d" stroke="#b30c3d" points="587.707,-113.461 583.334,-103.404 584.007,-110.097 580.307,-106.734 580.307,-106.734 580.307,-106.734 584.007,-110.097 577.28,-110.064 587.707,-113.461 587.707,-113.461"/>
</g>
<!-- Trainercycle&#45;&gt;Matter -->
<g id="edge30" class="edge"><title>Trainercycle&#45;&gt;Matter</title>
<path fill="none" stroke="#327dd9" d="M295.803,-356.153C307.395,-347.138 320.923,-336.615 332.482,-327.625"/>
<ellipse fill="none" stroke="#327dd9" cx="292.58" cy="-358.66" rx="4.00002" ry="4.00002"/>
<polygon fill="#327dd9" stroke="#327dd9" points="332.602,-327.532 343.258,-324.945 336.548,-324.462 340.495,-321.393 340.495,-321.393 340.495,-321.393 336.548,-324.462 337.732,-317.841 332.602,-327.532 332.602,-327.532"/>
</g>
<!-- Trainercycle&#45;&gt;Classroom -->
<g id="edge31" class="edge"><title>Trainercycle&#45;&gt;Classroom</title>
<path fill="none" stroke="#2d7113" d="M244.744,-354.835C236.875,-346.089 229.117,-335.405 225,-324 219.567,-308.951 219.019,-302.84 225,-288 229.736,-276.249 238.461,-265.645 247.373,-257.065"/>
<ellipse fill="none" stroke="#2d7113" cx="247.69" cy="-357.941" rx="4.00002" ry="4.00002"/>
<polygon fill="#2d7113" stroke="#2d7113" points="247.391,-257.048 257.832,-253.695 251.105,-253.7 254.819,-250.352 254.819,-250.352 254.819,-250.352 251.105,-253.7 251.806,-247.01 247.391,-257.048 247.391,-257.048"/>
</g>
<!-- Trainercycletype -->
<g id="node26" class="node"><title>Trainercycletype</title>
<ellipse fill="none" stroke="black" cx="337" cy="-450" rx="73.1654" ry="18"/>
<text text-anchor="middle" x="337" y="-446.3" font-family="Times,serif" font-size="14.00">Trainercycletype</text>
</g>
<!-- Trainercycletype&#45;&gt;Trainercycle -->
<g id="edge32" class="edge"><title>Trainercycletype&#45;&gt;Trainercycle</title>
<path fill="none" stroke="#f99150" d="M315.306,-426.668C307.927,-419.072 299.655,-410.556 292.166,-402.847"/>
<ellipse fill="none" stroke="#f99150" cx="318.098" cy="-429.542" rx="4.00002" ry="4.00002"/>
<polygon fill="#f99150" stroke="#f99150" points="291.967,-402.643 288.227,-392.334 288.483,-399.056 284.999,-395.47 284.999,-395.47 284.999,-395.47 288.483,-399.056 281.772,-398.605 291.967,-402.643 291.967,-402.643"/>
</g>
<!-- User -->
<g id="node27" class="node"><title>User</title>
<ellipse fill="none" stroke="black" cx="477" cy="-543" rx="28.3955" ry="18"/>
<text text-anchor="middle" x="477" y="-539.3" font-family="Times,serif" font-size="14.00">User</text>
</g>
</g>
</svg>
